<svg xmlns="http://www.w3.org/2000/svg" width="11.851" height="13.501" viewBox="0 0 11.851 13.501">
  <g id="calendar-date-svgrepo-com" transform="translate(-31.295)">
    <path id="Path_48780" data-name="Path 48780" d="M42,77.886H32.445a1.15,1.15,0,0,1-1.15-1.15V67.279a1.15,1.15,0,0,1,1.15-1.15H42a1.15,1.15,0,0,1,1.15,1.15v9.458A1.15,1.15,0,0,1,42,77.886Z" transform="translate(0 -64.385)" fill="#f8f8f8"/>
    <path id="Path_48781" data-name="Path 48781" d="M395.757,66.128h-1.12a1.15,1.15,0,0,1,1.15,1.15v9.458a1.15,1.15,0,0,1-1.15,1.15h1.12a1.15,1.15,0,0,0,1.15-1.15V67.278A1.15,1.15,0,0,0,395.757,66.128Z" transform="translate(-353.761 -64.384)" fill="#e1e1e4"/>
    <path id="Path_48782" data-name="Path 48782" d="M43.146,69.73H31.3V67.277a1.147,1.147,0,0,1,1.147-1.147H42a1.147,1.147,0,0,1,1.147,1.147V69.73Z" transform="translate(0 -64.386)" fill="#9ac225"/>
    <path id="Path_48783" data-name="Path 48783" d="M394.746,66.128h1.12a1.147,1.147,0,0,1,1.147,1.147v2.453h-1.12V67.275A1.147,1.147,0,0,0,394.746,66.128Z" transform="translate(-353.867 -64.384)" fill="#7a942d"/>
    <g id="Group_41331" data-name="Group 41331" transform="translate(33.546 0)">
      <path id="Path_48784" data-name="Path 48784" d="M117.342,3.266h0a.677.677,0,0,1-.676-.676V.676A.676.676,0,0,1,117.342,0h0a.677.677,0,0,1,.676.676V2.589A.677.677,0,0,1,117.342,3.266Z" transform="translate(-116.666 0)" fill="#ffd92d"/>
      <path id="Path_48785" data-name="Path 48785" d="M340.277,3.266h0a.677.677,0,0,1-.676-.676V.676A.677.677,0,0,1,340.277,0h0a.677.677,0,0,1,.677.676V2.589A.677.677,0,0,1,340.277,3.266Z" transform="translate(-333.722 0)" fill="#ffd92d"/>
    </g>
    <g id="Group_41332" data-name="Group 41332" transform="translate(34.926 7.253)">
      <path id="Path_48786" data-name="Path 48786" d="M170.012,278.2a.715.715,0,0,1-.511-.21.3.3,0,0,0-.43.43,1.337,1.337,0,0,0,2.281-.947,1.315,1.315,0,0,0-.393-.941,1.226,1.226,0,0,0-.376-.264l.678-.7a.417.417,0,0,0,.054-.075.329.329,0,0,0,.037-.145.3.3,0,0,0-.307-.3h-1.586a.3.3,0,0,0,0,.608h.871l-.548.559a.3.3,0,0,0,.011.43c0,.005,0,.005.005.005a.266.266,0,0,0,.221.1.72.72,0,0,1,.511.215.7.7,0,0,1,.215.511.721.721,0,0,1-.215.516A.737.737,0,0,1,170.012,278.2Z" transform="translate(-168.982 -275.051)" fill="#9ac225"/>
      <path id="Path_48787" data-name="Path 48787" d="M286.918,275.344a.295.295,0,0,0-.4-.264h0l-.006,0a.294.294,0,0,0-.038.02l-.005,0,0,0-.658.391a.3.3,0,0,0,.156.554.268.268,0,0,0,.151-.043l.215-.124v2.646a.292.292,0,0,0,.3.3.3.3,0,0,0,.3-.3V275.36h0s0,0,0,0,0,0,0,0v-.006Z" transform="translate(-282.58 -275.059)" fill="#9ac225"/>
    </g>
  </g>
</svg>
