<svg xmlns="http://www.w3.org/2000/svg" width="27.673" height="27.116" viewBox="0 0 27.673 27.116">
  <g id="Buy" transform="translate(1.156 1.156)">
    <path id="Stroke_1" data-name="Stroke 1" d="M1.054,0A1.054,1.054,0,1,1,0,1.055,1.056,1.056,0,0,1,1.054,0Z" transform="translate(5.39 22.852)" fill="#fff" stroke="#fff" stroke-linecap="round" stroke-linejoin="round" stroke-width="2" fill-rule="evenodd"/>
    <path id="Stroke_3" data-name="Stroke 3" d="M1.055,0A1.054,1.054,0,1,1,0,1.055,1.056,1.056,0,0,1,1.055,0Z" transform="translate(20.907 22.852)" fill="#fff" stroke="#fff" stroke-linecap="round" stroke-linejoin="round" stroke-width="2" fill-rule="evenodd"/>
    <path id="Stroke_5" data-name="Stroke 5" d="M3.329,5.308H23.664a1.849,1.849,0,0,1,1.83,2.114l-1.309,9.044A2.488,2.488,0,0,1,21.723,18.6H6.675A2.486,2.486,0,0,1,4.2,16.319L2.868.5,0,0" transform="translate(0 0)" fill="none" stroke="#fff" stroke-linecap="round" stroke-linejoin="round" stroke-width="2" fill-rule="evenodd"/>
    <path id="Stroke_7" data-name="Stroke 7" d="M0,.5H3.824" transform="translate(15.688 9.905)" fill="#f4ebdd" stroke="#fff" stroke-linecap="round" stroke-linejoin="round" stroke-width="2" fill-rule="evenodd"/>
  </g>
</svg>
