<svg xmlns="http://www.w3.org/2000/svg" width="20" height="20" viewBox="0 0 20 20">
    <g id="Group_1000" data-name="Group 1000" transform="translate(-128 -1370.5)">
        <path id="Path_129" data-name="Path 129" d="M6.5,3.588A14.372,14.372,0,0,0,4.052,3.9a.191.191,0,0,0-.153.153A14.372,14.372,0,0,0,3.588,6.5,14.372,14.372,0,0,0,3.9,8.948a.191.191,0,0,0,.153.153A14.372,14.372,0,0,0,6.5,9.412,14.372,14.372,0,0,0,8.948,9.1.191.191,0,0,0,9.1,8.948,14.372,14.372,0,0,0,9.412,6.5,14.372,14.372,0,0,0,9.1,4.052.191.191,0,0,0,8.948,3.9,14.372,14.372,0,0,0,6.5,3.588ZM3.741,2.342A15.816,15.816,0,0,1,6.5,2a15.816,15.816,0,0,1,2.759.342,1.779,1.779,0,0,1,1.4,1.4A15.813,15.813,0,0,1,11,6.5a15.813,15.813,0,0,1-.342,2.759,1.779,1.779,0,0,1-1.4,1.4A15.813,15.813,0,0,1,6.5,11a15.813,15.813,0,0,1-2.759-.342,1.779,1.779,0,0,1-1.4-1.4A15.816,15.816,0,0,1,2,6.5a15.816,15.816,0,0,1,.342-2.759A1.779,1.779,0,0,1,3.741,2.342Z" transform="translate(126 1368.5)" fill="#7d7d85" fill-rule="evenodd"/>
        <path id="Path_130" data-name="Path 130" d="M6.5,14.588a14.369,14.369,0,0,0-2.448.311.191.191,0,0,0-.153.153A14.372,14.372,0,0,0,3.588,17.5,14.372,14.372,0,0,0,3.9,19.948a.191.191,0,0,0,.153.153,14.369,14.369,0,0,0,2.448.311A14.369,14.369,0,0,0,8.948,20.1a.191.191,0,0,0,.153-.153A14.372,14.372,0,0,0,9.412,17.5,14.372,14.372,0,0,0,9.1,15.052a.191.191,0,0,0-.153-.153A14.369,14.369,0,0,0,6.5,14.588ZM3.741,13.342A15.813,15.813,0,0,1,6.5,13a15.813,15.813,0,0,1,2.759.342,1.779,1.779,0,0,1,1.4,1.4A15.814,15.814,0,0,1,11,17.5a15.814,15.814,0,0,1-.342,2.759,1.779,1.779,0,0,1-1.4,1.4A15.813,15.813,0,0,1,6.5,22a15.813,15.813,0,0,1-2.759-.342,1.779,1.779,0,0,1-1.4-1.4A15.817,15.817,0,0,1,2,17.5a15.817,15.817,0,0,1,.342-2.759A1.779,1.779,0,0,1,3.741,13.342Z" transform="translate(126 1368.5)" fill="#7d7d85" fill-rule="evenodd"/>
        <path id="Path_131" data-name="Path 131" d="M17.5,3.588a14.372,14.372,0,0,0-2.448.311.191.191,0,0,0-.153.153A14.369,14.369,0,0,0,14.588,6.5,14.369,14.369,0,0,0,14.9,8.948a.191.191,0,0,0,.153.153,14.372,14.372,0,0,0,2.448.311A14.372,14.372,0,0,0,19.948,9.1a.191.191,0,0,0,.153-.153A14.369,14.369,0,0,0,20.412,6.5,14.369,14.369,0,0,0,20.1,4.052a.191.191,0,0,0-.153-.153A14.372,14.372,0,0,0,17.5,3.588ZM14.741,2.342A15.817,15.817,0,0,1,17.5,2a15.817,15.817,0,0,1,2.759.342,1.779,1.779,0,0,1,1.4,1.4A15.813,15.813,0,0,1,22,6.5a15.813,15.813,0,0,1-.342,2.759,1.779,1.779,0,0,1-1.4,1.4A15.814,15.814,0,0,1,17.5,11a15.814,15.814,0,0,1-2.759-.342,1.779,1.779,0,0,1-1.4-1.4A15.813,15.813,0,0,1,13,6.5a15.813,15.813,0,0,1,.342-2.759A1.779,1.779,0,0,1,14.741,2.342Z" transform="translate(126 1368.5)" fill="#7d7d85" fill-rule="evenodd"/>
        <path id="Path_132" data-name="Path 132" d="M17.5,14.588a14.369,14.369,0,0,0-2.448.311.191.191,0,0,0-.153.153,14.369,14.369,0,0,0-.311,2.448,14.369,14.369,0,0,0,.311,2.448.191.191,0,0,0,.153.153,14.369,14.369,0,0,0,2.448.311,14.369,14.369,0,0,0,2.448-.311.191.191,0,0,0,.153-.153,14.369,14.369,0,0,0,.311-2.448,14.369,14.369,0,0,0-.311-2.448.191.191,0,0,0-.153-.153A14.369,14.369,0,0,0,17.5,14.588Zm-2.759-1.246A15.814,15.814,0,0,1,17.5,13a15.814,15.814,0,0,1,2.759.342,1.779,1.779,0,0,1,1.4,1.4A15.814,15.814,0,0,1,22,17.5a15.814,15.814,0,0,1-.342,2.759,1.779,1.779,0,0,1-1.4,1.4A15.814,15.814,0,0,1,17.5,22a15.814,15.814,0,0,1-2.759-.342,1.779,1.779,0,0,1-1.4-1.4A15.814,15.814,0,0,1,13,17.5a15.814,15.814,0,0,1,.342-2.759A1.779,1.779,0,0,1,14.741,13.342Z" transform="translate(126 1368.5)" fill="#7d7d85" fill-rule="evenodd"/>
    </g>
</svg>