<svg xmlns="http://www.w3.org/2000/svg" width="13.6" height="13.6" viewBox="0 0 13.6 13.6">
  <g id="Group_3475" data-name="Group 3475" transform="translate(-32 -521)">
    <path id="Vector" d="M9.228,0A4.371,4.371,0,1,1,7.959,8.554L2.914,13.6H0V10.686L5.045,5.64A4.37,4.37,0,0,1,9.228,0Zm0,7.771A3.4,3.4,0,1,0,5.975,5.358l.169.557-.412.411L.971,11.088v1.541H2.512l1.072-1.072-.67-.67L3.6,10.2l.67.67.77-.77-.67-.67.687-.687.67.669L7.273,7.867l.411-.411.557.169a3.406,3.406,0,0,0,.987.147Z" transform="translate(32 521)" fill="#4b4b4b"/>
    <path id="Vector-2" data-name="Vector" d="M2.007,1A1,1,0,1,1,1,0,1,1,0,0,1,2.007,1Z" transform="translate(40.694 523.898)" fill="#4b4b4b"/>
  </g>
</svg>
