<svg xmlns="http://www.w3.org/2000/svg" width="11.409" height="9.323" viewBox="0 0 11.409 9.323">
  <g id="delivery-svgrepo-com" transform="translate(1 -45.76)">
    <g id="Group_865" data-name="Group 865" transform="translate(-1 45.76)">
      <path id="Path_133" data-name="Path 133" d="M10.3,50.669c-.342-.457-.685-.457-1.522-.019l-.837.516V46.711a.572.572,0,0,0-.571-.571H5.66v-.19a.18.18,0,0,0-.19-.19h-1.9a.18.18,0,0,0-.19.19v.19H1.664a.572.572,0,0,0-.571.571v3.425a4.737,4.737,0,0,0-.761.4v-.4H-1v4.947H.332v-.571H2.805c.381,0,.78-.038,1.161-.057l2.474-.381a1.122,1.122,0,0,0,.266-.038,1.249,1.249,0,0,0,.628-.323l2.873-2.283A.564.564,0,0,0,10.3,50.669ZM3.757,46.141H5.279v1.5l-.647-.514a.173.173,0,0,0-.228,0l-.647.514v-1.5Zm-2.283.571a.191.191,0,0,1,.19-.19H3.376v1.161a.352.352,0,0,0,.209.323.362.362,0,0,0,.145.038.317.317,0,0,0,.235-.076l.552-.438.514.438a.4.4,0,0,0,.242.071.391.391,0,0,0,.176-.033.352.352,0,0,0,.209-.323V46.521H7.334a.191.191,0,0,1,.19.19v4.7l-.4.247a2.959,2.959,0,0,1-1.2.171.584.584,0,0,0-.114-.628,1.668,1.668,0,0,0-1.37-.7H3.7a1.8,1.8,0,0,1-1.085-.342,1.064,1.064,0,0,0-.584-.205q-.05,0-.1,0A2.132,2.132,0,0,0,1.474,50ZM-.049,54.7H-.619V50.517h.571V54.7ZM9.979,51.164,7.087,53.409l-.019.019a.66.66,0,0,1-.438.228.781.781,0,0,1-.209.019l-2.512.381a7.174,7.174,0,0,1-1.1.076H.332v-3.14a4.537,4.537,0,0,1,.959-.52.226.226,0,0,0,.068-.012,1.111,1.111,0,0,1,1.027.019A2.2,2.2,0,0,0,3.7,50.9h.742a1.228,1.228,0,0,1,1.066.552.323.323,0,0,1,.1.264v0a.2.2,0,0,1-.1.073h0l-.018.007-.016.006-.006,0a.954.954,0,0,1-.105.027h0l-.04.007H5.31l-.037.006H5.264q-.094.013-.213.021H3.091c-.59,0-.951.285-.951.761a.19.19,0,0,0,.381,0c0-.1,0-.381.571-.381H5.184a5.338,5.338,0,0,0,2.169-.228l1.636-1.008c.8-.4.875-.3,1.027-.076A.179.179,0,0,1,9.979,51.164Z" transform="translate(1 -45.76)" fill="#9ac225"/>
    </g>
  </g>
</svg>
