<svg xmlns="http://www.w3.org/2000/svg" width="21.838" height="23.866" viewBox="0 0 21.838 23.866">
  <g id="Hicon_Linear_Discount_Shape_1" data-name="Hicon / Linear / Discount Shape 1" transform="translate(0.825 0.75)">
    <g id="Discount_Shape_1" data-name="Discount Shape 1">
      <path id="Vector" d="M7.251,2.145a2.957,2.957,0,0,1,5.686,0A2.957,2.957,0,0,0,16.5,4.2a2.957,2.957,0,0,1,2.843,4.924,2.957,2.957,0,0,0,0,4.113A2.957,2.957,0,0,1,16.5,18.164a2.957,2.957,0,0,0-3.562,2.057,2.957,2.957,0,0,1-5.686,0,2.957,2.957,0,0,0-3.562-2.057A2.957,2.957,0,0,1,.846,13.239a2.957,2.957,0,0,0,0-4.113A2.957,2.957,0,0,1,3.689,4.2,2.957,2.957,0,0,0,7.251,2.145Z" fill="none" stroke="#373737" stroke-width="1.5"/>
      <path id="Vector-2" data-name="Vector" d="M7.094,14.183l5.657-5.657" fill="none" stroke="#373737" stroke-width="1.5"/>
      <path id="Vector-3" data-name="Vector" d="M0,1A1,1,0,1,0,1,0,1,1,0,0,0,0,1Z" transform="translate(6.094 7.183)" fill="#373737"/>
      <path id="Vector-4" data-name="Vector" d="M6,7A1,1,0,1,0,7,6,1,1,0,0,0,6,7Z" transform="translate(6.094 7.183)" fill="#373737"/>
    </g>
  </g>
</svg>
