<svg xmlns="http://www.w3.org/2000/svg" width="15.653" height="17.397" viewBox="0 0 15.653 17.397">
  <g id="Graphic-design_2_" transform="translate(-3.155 0.151)">
    <path id="Path_203" data-name="Path 203" d="M30.628,3.51a.266.266,0,0,0-.371.066l-6.149,8.832a.265.265,0,0,0-.045.114l-.406,2.787a.267.267,0,0,0,.391.272l2.473-1.348a.262.262,0,0,0,.091-.082L32.761,5.32a.267.267,0,0,0-.066-.371ZM26.211,13.8l-1.949,1.062.32-2.2L30.542,4.1l1.629,1.134Z" transform="translate(-14.913 -2.537)" fill="#515151" stroke="#515151" stroke-width="0.3"/>
    <path id="Path_204" data-name="Path 204" d="M17.44,13.706a.267.267,0,0,0-.267.267V22.92a1.039,1.039,0,0,1-1.038,1.038H4.877A1.039,1.039,0,0,1,3.839,22.92V11.661a1.039,1.039,0,0,1,1.038-1.038h6.637a.267.267,0,0,0,0-.533H4.877a1.573,1.573,0,0,0-1.571,1.571V22.92a1.573,1.573,0,0,0,1.571,1.571H16.136a1.573,1.573,0,0,0,1.571-1.571V13.972A.267.267,0,0,0,17.44,13.706Z" transform="translate(0 -7.395)" fill="#515151" stroke="#515151" stroke-width="0.3"/>
    <path id="Path_205" data-name="Path 205" d="M53.243,1.471,51.1.045a.267.267,0,0,0-.3.444l2.139,1.426a.267.267,0,1,0,.3-.444Z" transform="translate(-34.726 0)" fill="#515151" stroke="#515151" stroke-width="0.3"/>
  </g>
</svg>
