<svg xmlns="http://www.w3.org/2000/svg" width="17.034" height="17.034" viewBox="0 0 17.034 17.034">
  <g id="help-svgrepo-com" transform="translate(-0.002)">
    <path id="Path_216" data-name="Path 216" d="M8.519,0a8.517,8.517,0,1,0,8.517,8.517A8.527,8.527,0,0,0,8.519,0Zm0,15.868A7.351,7.351,0,1,1,15.87,8.517,7.36,7.36,0,0,1,8.519,15.868Z" fill="#515151"/>
    <path id="Path_217" data-name="Path 217" d="M99.979,152.243a.809.809,0,1,0,.809.809A.81.81,0,0,0,99.979,152.243Zm0,1.166a.357.357,0,1,1,.357-.357A.358.358,0,0,1,99.979,153.409Z" transform="translate(-91.46 -140.409)" fill="#515151"/>
    <path id="Path_218" data-name="Path 218" d="M77.538,46.089a2.7,2.7,0,0,0-2.7,2.7.583.583,0,1,0,1.166,0,1.534,1.534,0,1,1,1.534,1.534.583.583,0,0,0-.583.583v2.108a.583.583,0,1,0,1.166,0V51.425a2.7,2.7,0,0,0-.583-5.336Z" transform="translate(-69.019 -42.507)" fill="#515151"/>
  </g>
</svg>
