<svg xmlns="http://www.w3.org/2000/svg" width="22.035" height="22.027" viewBox="0 0 22.035 22.027">
    <path id="home-Regular_1_" d="M225.283,1017.975l-5.65-4.543a5.4,5.4,0,0,0-6.73,0l-5.65,4.543a5.334,5.334,0,0,0-2,4.176v6.771a5.371,5.371,0,0,0,5.368,5.362h3.107v-5.362a2.542,2.542,0,0,1,5.085,0v5.362h3.108a5.37,5.37,0,0,0,5.367-5.362v-6.771A5.333,5.333,0,0,0,225.283,1017.975Zm.307,10.947a3.674,3.674,0,0,1-3.672,3.667h-1.413v-3.667a4.238,4.238,0,0,0-8.475,0v3.667h-1.412a3.674,3.674,0,0,1-3.673-3.667v-6.771a3.647,3.647,0,0,1,1.368-2.855l5.65-4.543a3.7,3.7,0,0,1,4.607,0l5.65,4.543a3.647,3.647,0,0,1,1.368,2.855v6.771Z" transform="translate(-205.25 -1012.257)" fill="#7d7d85"/>
</svg>