<svg xmlns="http://www.w3.org/2000/svg" width="11.809" height="14.932" viewBox="0 0 11.809 14.932">
  <path id="audio-svgrepo-com" d="M193.809,70.5a.139.139,0,0,0-.143-.133h-1.074a.139.139,0,0,0-.143.133,4.556,4.556,0,0,1-9.089,0,.139.139,0,0,0-.143-.133h-1.074A.139.139,0,0,0,182,70.5a5.654,5.654,0,0,0,5.189,5.459v1.707h-2.6a.493.493,0,0,0-.442.533v.6a.124.124,0,0,0,.111.133h7.293a.124.124,0,0,0,.111-.133v-.6a.493.493,0,0,0-.442-.533h-2.671v-1.7A5.662,5.662,0,0,0,193.809,70.5Zm-5.9,2.833a2.928,2.928,0,0,0,3.042-2.8V66.8a3.052,3.052,0,0,0-6.083,0v3.733A2.928,2.928,0,0,0,187.9,73.332ZM186.223,66.8a1.689,1.689,0,0,1,3.364,0v3.733a1.689,1.689,0,0,1-3.364,0Z" transform="translate(-182 -64)" fill="#c9c9c7"/>
</svg>
