<svg xmlns="http://www.w3.org/2000/svg" width="14.891" height="16.592" viewBox="0 0 14.891 16.592">
  <path id="bell-Regular_1_" d="M220.889,1167.648l-.941-1.571a3.611,3.611,0,0,1-.514-1.858v-2.235a5.739,5.739,0,0,0-11.478,0v2.235a3.619,3.619,0,0,1-.514,1.858l-.941,1.571a1.744,1.744,0,0,0,1.5,2.641h3.386c-.007.071-.028.141-.028.213a2.34,2.34,0,1,0,4.68,0c0-.072-.021-.141-.028-.213h3.386a1.743,1.743,0,0,0,1.495-2.641Zm-6.131,2.854a1.064,1.064,0,1,1-2.127,0,1.05,1.05,0,0,1,.028-.213h2.071A1.049,1.049,0,0,1,214.758,1170.5Zm5.043-1.727a.46.46,0,0,1-.408.237H208a.468.468,0,0,1-.4-.708l.941-1.571a4.887,4.887,0,0,0,.7-2.514v-2.235a4.463,4.463,0,0,1,8.925,0v2.235a4.894,4.894,0,0,0,.7,2.514l.941,1.571A.457.457,0,0,1,219.8,1168.774Z" transform="translate(-206.25 -1156.249)"/>
</svg>
