<svg xmlns="http://www.w3.org/2000/svg" width="248" height="217.805" viewBox="0 0 248 217.805">
  <g id="Group_42285" data-name="Group 42285" transform="translate(-90 -177.957)">
    <g id="Group_42267" data-name="Group 42267" transform="translate(200.999 176.527)">
      <g id="Background_Complete" data-name="Background Complete" transform="translate(-109.473 1.429)">
        <g id="Group_41993" data-name="Group 41993" transform="translate(165.936 0)">
          <g id="Group_41972" data-name="Group 41972">
            <g id="Group_41971" data-name="Group 41971">
              <rect id="Rectangle_1084" data-name="Rectangle 1084" width="55.777" height="52.901" rx="6.79" transform="translate(0 12.061) rotate(-12.488)" fill="#ebebeb"/>
            </g>
          </g>
          <g id="Group_41992" data-name="Group 41992" transform="translate(14.129 15.159)">
            <g id="Group_41991" data-name="Group 41991">
              <g id="Group_41987" data-name="Group 41987">
                <g id="Group_41975" data-name="Group 41975" transform="translate(0 9.149)">
                  <g id="Group_41974" data-name="Group 41974">
                    <g id="Group_41973" data-name="Group 41973">
                      <path id="Path_49434" data-name="Path 49434" d="M388.572,102.379a2.223,2.223,0,0,1-.361.105l-1.049.258-3.894.912-13.088,2.974-.106.024-.039-.1-.79-2.1L363.57,89.2l.093.05-3.5.745-.933.187a1.858,1.858,0,0,1-.325.05,1.836,1.836,0,0,1,.315-.094l.923-.228,3.48-.817.068-.016.025.066,5.763,15.214.788,2.1-.146-.078,13.106-2.895,3.91-.837,1.059-.214A2.2,2.2,0,0,1,388.572,102.379Z" transform="translate(-358.909 -89.079)" fill="#fafafa"/>
                    </g>
                  </g>
                </g>
                <g id="Group_41978" data-name="Group 41978" transform="translate(5.795 6.869)">
                  <g id="Group_41977" data-name="Group 41977">
                    <g id="Group_41976" data-name="Group 41976">
                      <path id="Path_49435" data-name="Path 49435" d="M373.916,100.784a.336.336,0,0,1,.09-.031l.269-.071,1.049-.256,3.934-.918,13.582-3.089-.095.124c-.11-2.378-.229-4.95-.352-7.611-.062-1.369-.123-2.714-.181-4l.152.117L376.337,88.6l-4.751,1.026-1.283.265-.334.063a.459.459,0,0,1-.115.014.426.426,0,0,1,.11-.037l.329-.085,1.273-.308,4.734-1.1,16.011-3.63.146-.033.007.15c.059,1.282.12,2.628.183,4,.119,2.662.235,5.233.341,7.611l0,.1-.1.022-13.6,3-3.95.849-1.058.217-.274.051A.3.3,0,0,1,373.916,100.784Z" transform="translate(-369.854 -84.774)" fill="#fafafa"/>
                    </g>
                  </g>
                </g>
                <g id="Group_41981" data-name="Group 41981" transform="translate(13.113 28.966)">
                  <g id="Group_41980" data-name="Group 41980">
                    <g id="Group_41979" data-name="Group 41979">
                      <path id="Path_49436" data-name="Path 49436" d="M387.532,128.085c-.023.006-.06-.159-.2-.415a1.885,1.885,0,0,0-.891-.805,1.779,1.779,0,1,0,.625,2.789,1.883,1.883,0,0,0,.462-1.108c.02-.292-.016-.457.006-.461a.955.955,0,0,1,.093.464,1.881,1.881,0,0,1-.424,1.221,1.971,1.971,0,0,1-1.766.714,2,2,0,0,1-.823-3.674,1.969,1.969,0,0,1,1.9-.107,1.878,1.878,0,0,1,.9.923A.959.959,0,0,1,387.532,128.085Z" transform="translate(-383.676 -126.508)" fill="#fafafa"/>
                    </g>
                  </g>
                </g>
                <g id="Group_41984" data-name="Group 41984" transform="translate(24.966 26.31)">
                  <g id="Group_41983" data-name="Group 41983">
                    <g id="Group_41982" data-name="Group 41982">
                      <path id="Path_49437" data-name="Path 49437" d="M409.921,123.069c-.023.006-.06-.159-.2-.415a1.882,1.882,0,0,0-.891-.805,1.779,1.779,0,1,0,.625,2.789,1.888,1.888,0,0,0,.462-1.108c.02-.292-.017-.457.006-.461a.959.959,0,0,1,.092.464,1.877,1.877,0,0,1-.423,1.22,1.97,1.97,0,0,1-1.766.715,2,2,0,0,1-.823-3.674,1.969,1.969,0,0,1,1.9-.107,1.878,1.878,0,0,1,.9.923A.957.957,0,0,1,409.921,123.069Z" transform="translate(-406.064 -121.492)" fill="#fafafa"/>
                    </g>
                  </g>
                </g>
                <g id="Group_41986" data-name="Group 41986" transform="translate(21.468)">
                  <g id="Group_41985" data-name="Group 41985">
                    <path id="Path_49438" data-name="Path 49438" d="M410.1,76.009a5.386,5.386,0,1,1-6.433-4.078A5.386,5.386,0,0,1,410.1,76.009Z" transform="translate(-399.457 -71.799)" fill="#fafafa"/>
                  </g>
                </g>
              </g>
              <g id="Group_41990" data-name="Group 41990" transform="translate(24.402 2.785)">
                <g id="Group_41989" data-name="Group 41989">
                  <g id="Group_41988" data-name="Group 41988">
                    <path id="Path_49439" data-name="Path 49439" d="M409.866,77.06a4.888,4.888,0,0,1-.492,1c-.331.6-.8,1.423-1.34,2.323l-.577.957-.06.1-.1-.056a17.368,17.368,0,0,1-2.3-1.377,17.53,17.53,0,0,1,2.412,1.164l-.161.044.567-.963c.536-.9,1.033-1.707,1.4-2.285A4.861,4.861,0,0,1,409.866,77.06Z" transform="translate(-404.999 -77.06)" fill="#e0e0e0"/>
                  </g>
                </g>
              </g>
            </g>
          </g>
        </g>
        <g id="Group_42012" data-name="Group 42012" transform="translate(0 2.645)">
          <g id="Group_41995" data-name="Group 41995" transform="translate(22.839 74.279)">
            <g id="Group_41994" data-name="Group 41994">
              <path id="Path_49440" data-name="Path 49440" d="M67.421,191.593c-.977-3.459-5.473-3.124-5.473-3.124l.124,2.406c2.6-.448,4.214,2.6,4.214,2.6Z" transform="translate(-61.948 -188.46)" fill="#e0e0e0"/>
            </g>
          </g>
          <g id="Group_41997" data-name="Group 41997" transform="translate(92.857 31.231)">
            <g id="Group_41996" data-name="Group 41996">
              <path id="Path_49441" data-name="Path 49441" d="M195.666,113.4c5.215,1.58,8.46-4.435,8.46-4.435l-3.173-1.808c-1.551,3.684-6.76,3.258-6.76,3.258Z" transform="translate(-194.193 -107.153)" fill="#e0e0e0"/>
            </g>
          </g>
          <g id="Group_41999" data-name="Group 41999" transform="translate(132.825 67.369)">
            <g id="Group_41998" data-name="Group 41998">
              <path id="Path_49442" data-name="Path 49442" d="M274.479,177.8c-1.009-2.876-4.8-2.354-4.8-2.354l.231,2.029c2.176-.517,3.7,1.976,3.7,1.976Z" transform="translate(-269.683 -175.409)" fill="#e0e0e0"/>
            </g>
          </g>
          <g id="Group_42001" data-name="Group 42001" transform="translate(73.008)">
            <g id="Group_42000" data-name="Group 42000">
              <path id="Path_49443" data-name="Path 49443" d="M161.5,50.557c-1.009-2.876-4.8-2.355-4.8-2.355l.231,2.03c2.176-.517,3.7,1.975,3.7,1.975Z" transform="translate(-156.704 -48.165)" fill="#e0e0e0"/>
            </g>
          </g>
          <g id="Group_42003" data-name="Group 42003" transform="translate(27.824 36.801)">
            <g id="Group_42002" data-name="Group 42002">
              <path id="Path_49444" data-name="Path 49444" d="M76.159,120.066c-1.009-2.877-4.8-2.355-4.8-2.355l.231,2.029c2.176-.516,3.7,1.976,3.7,1.976Z" transform="translate(-71.363 -117.674)" fill="#ebebeb"/>
            </g>
          </g>
          <g id="Group_42005" data-name="Group 42005" transform="translate(19.974 12.306)">
            <g id="Group_42004" data-name="Group 42004">
              <path id="Path_49445" data-name="Path 49445" d="M59.688,71.409c-3.008.493-3.153,4.313-3.153,4.313l2.039.125c-.13-2.232,2.59-3.3,2.59-3.3Z" transform="translate(-56.535 -71.409)" fill="#ebebeb"/>
            </g>
          </g>
          <g id="Group_42007" data-name="Group 42007" transform="translate(0 95.533)">
            <g id="Group_42006" data-name="Group 42006">
              <path id="Path_49446" data-name="Path 49446" d="M20.283,234.846c5.215,1.58,8.46-4.435,8.46-4.435L25.569,228.6c-1.551,3.684-6.759,3.258-6.759,3.258Z" transform="translate(-18.81 -228.603)" fill="#ebebeb"/>
            </g>
          </g>
          <g id="Group_42009" data-name="Group 42009" transform="translate(146.924 34.354)">
            <g id="Group_42008" data-name="Group 42008">
              <path id="Path_49447" data-name="Path 49447" d="M299.43,116.5c.353-2.415-2.528-3.452-2.528-3.452l-.589,1.526c1.735.442,1.893,2.777,1.893,2.777Z" transform="translate(-296.313 -113.052)" fill="#e0e0e0"/>
            </g>
          </g>
          <g id="Group_42011" data-name="Group 42011" transform="translate(131.496 11.282)">
            <g id="Group_42010" data-name="Group 42010">
              <path id="Path_49448" data-name="Path 49448" d="M268.38,69.475c-2.034,1.35-.883,4.186-.883,4.186l1.53-.58c-.83-1.587.8-3.264.8-3.264Z" transform="translate(-267.173 -69.475)" fill="#ebebeb"/>
            </g>
          </g>
        </g>
        <g id="Group_42020" data-name="Group 42020" transform="translate(213.885 67.979)">
          <g id="Group_42015" data-name="Group 42015">
            <g id="Group_42014" data-name="Group 42014">
              <g id="Group_42013" data-name="Group 42013">
                <path id="Path_49449" data-name="Path 49449" d="M429.827,171.565,422.786,192.3l20.821,4.138,1.2-21.9Z" transform="translate(-422.786 -171.565)" fill="#f5f5f5"/>
              </g>
            </g>
          </g>
          <g id="Group_42019" data-name="Group 42019" transform="translate(8.289 3.471)">
            <g id="Group_42018" data-name="Group 42018">
              <g id="Group_42017" data-name="Group 42017">
                <g id="Group_42016" data-name="Group 42016">
                  <path id="Path_49450" data-name="Path 49450" d="M449.868,180.381c.024.01-.039.232-.234.595a6.063,6.063,0,0,1-1.048,1.394,5.692,5.692,0,0,1-2.207,1.375,6.211,6.211,0,0,1-3.179.161,6.325,6.325,0,0,1-2.9-1.306,5.085,5.085,0,0,1-1.49-2.133,5.667,5.667,0,0,1-.358-1.708,1.412,1.412,0,0,1,.048-.637,9.908,9.908,0,0,0,.567,2.242,5.028,5.028,0,0,0,1.464,1.959,6.2,6.2,0,0,0,2.746,1.2,6.068,6.068,0,0,0,3-.12,5.729,5.729,0,0,0,2.126-1.232A11.105,11.105,0,0,0,449.868,180.381Z" transform="translate(-438.442 -178.121)" fill="#fff"/>
                </g>
              </g>
            </g>
          </g>
        </g>
      </g>
      <g id="Desk" transform="translate(-110.999 218.894)">
        <g id="Group_42023" data-name="Group 42023" transform="translate(0)">
          <g id="Group_42022" data-name="Group 42022">
            <path id="Path_49454" data-name="Path 49454" d="M258.492,454.044c0,.076-54.3.138-121.277.138-67,0-121.289-.062-121.289-.138s54.293-.138,121.289-.138C204.188,453.906,258.492,453.968,258.492,454.044Z" transform="translate(-15.927 -453.906)" fill="#263238"/>
          </g>
        </g>
      </g>
      <g id="Screen" transform="translate(-102.227 55.648)">
        <g id="Group_42042" data-name="Group 42042" transform="translate(0 0)">
          <g id="Group_42027" data-name="Group 42027">
            <g id="Group_42024" data-name="Group 42024" transform="translate(0.138 0.138)">
              <rect id="Rectangle_1085" data-name="Rectangle 1085" width="129.108" height="101.07" fill="#fafafa"/>
            </g>
            <g id="Group_42026" data-name="Group 42026">
              <g id="Group_42025" data-name="Group 42025">
                <path id="Path_49455" data-name="Path 49455" d="M161.743,246.783c0-.949-.046-40.1-.114-101.07l.114.114-129.1.024h-.011l.138-.138c0,36.446-.01,70.911-.014,101.07l-.124-.124,129.109.124-129.109.124h-.124v-.124c0-30.159-.009-64.624-.014-101.07v-.138h.149l129.1.024h.114v.114C161.789,206.686,161.744,245.835,161.743,246.783Z" transform="translate(-32.497 -145.575)" fill="#263238"/>
              </g>
            </g>
          </g>
          <g id="Group_42028" data-name="Group 42028" transform="translate(21.635 46.247)">
            <path id="Path_49456" data-name="Path 49456" d="M76.3,237.1v1.681H75.2v-1.694l-1.837-3.05h1.166l1.267,2.108,1.268-2.108H78.14Z" transform="translate(-73.361 -233.449)" fill="#263238"/>
            <path id="Path_49457" data-name="Path 49457" d="M81.833,237.888a2.007,2.007,0,1,1,2.006,1.877A1.877,1.877,0,0,1,81.833,237.888Zm2.935,0a.935.935,0,1,0-.929,1.01A.92.92,0,0,0,84.768,237.888Z" transform="translate(-77.348 -234.377)" fill="#263238"/>
            <path id="Path_49458" data-name="Path 49458" d="M94.382,236.113v3.646h-1v-.434a1.475,1.475,0,0,1-1.132.488,1.453,1.453,0,0,1-1.559-1.64v-2.061h1.057v1.9c0,.61.271.881.739.881.488,0,.84-.312.84-.983v-1.8Z" transform="translate(-81.514 -234.425)" fill="#263238"/>
            <path id="Path_49459" data-name="Path 49459" d="M101.782,236.011v.976c-.088-.007-.156-.014-.238-.014a.9.9,0,0,0-.969,1.017v1.722H99.518v-3.646h1.01v.481A1.472,1.472,0,0,1,101.782,236.011Z" transform="translate(-85.669 -234.377)" fill="#263238"/>
            <path id="Path_49460" data-name="Path 49460" d="M108.232,236.338a2.6,2.6,0,1,1,2.6,2.454A2.455,2.455,0,0,1,108.232,236.338Zm4.08,0a1.485,1.485,0,1,0-1.485,1.518A1.447,1.447,0,0,0,112.312,236.338Z" transform="translate(-89.77 -233.377)" fill="#263238"/>
            <path id="Path_49461" data-name="Path 49461" d="M121.718,236.011v.976c-.088-.007-.156-.014-.237-.014a.9.9,0,0,0-.969,1.017v1.722h-1.057v-3.646h1.01v.481A1.472,1.472,0,0,1,121.718,236.011Z" transform="translate(-95.05 -234.377)" fill="#263238"/>
            <path id="Path_49462" data-name="Path 49462" d="M128.34,233.5v5.029h-1.01v-.42a1.4,1.4,0,0,1-1.138.475,1.878,1.878,0,0,1,0-3.755,1.4,1.4,0,0,1,1.091.441V233.5Zm-1.037,3.206a.935.935,0,1,0-.929,1.01A.924.924,0,0,0,127.3,236.707Z" transform="translate(-97.362 -233.196)" fill="#263238"/>
            <path id="Path_49463" data-name="Path 49463" d="M137.02,238.187h-2.759a.973.973,0,0,0,1.044.732,1.236,1.236,0,0,0,.915-.352l.563.61a2.13,2.13,0,0,1-3.586-1.288,1.856,1.856,0,0,1,1.946-1.877,1.805,1.805,0,0,1,1.9,1.891C137.04,237.983,137.027,238.1,137.02,238.187Zm-2.772-.617h1.8a.911.911,0,0,0-1.8,0Z" transform="translate(-101.517 -234.377)" fill="#263238"/>
            <path id="Path_49464" data-name="Path 49464" d="M144.048,236.011v.976c-.088-.007-.156-.014-.238-.014a.9.9,0,0,0-.969,1.017v1.722h-1.057v-3.646h1.01v.481A1.472,1.472,0,0,1,144.048,236.011Z" transform="translate(-105.557 -234.377)" fill="#263238"/>
            <path id="Path_49465" data-name="Path 49465" d="M150.677,233.515a.6.6,0,0,1,.658-.59.594.594,0,0,1,.658.569.66.66,0,0,1-1.315.021Zm.129,1.1h1.058v3.646h-1.058Z" transform="translate(-109.742 -232.925)" fill="#263238"/>
            <path id="Path_49466" data-name="Path 49466" d="M154.106,239.372l.353-.759a2.5,2.5,0,0,0,1.268.352c.488,0,.671-.129.671-.332,0-.6-2.2.013-2.2-1.444,0-.691.623-1.179,1.688-1.179a3,3,0,0,1,1.4.318l-.352.752a2.1,2.1,0,0,0-1.05-.271c-.475,0-.678.149-.678.339,0,.624,2.2.021,2.2,1.457,0,.678-.631,1.16-1.722,1.16A3.128,3.128,0,0,1,154.106,239.372Z" transform="translate(-111.356 -234.377)" fill="#263238"/>
            <path id="Path_49467" data-name="Path 49467" d="M164.766,236.338a2.613,2.613,0,0,1,4.527-1.613l-.7.651a1.527,1.527,0,0,0-1.193-.556,1.518,1.518,0,1,0,0,3.036,1.512,1.512,0,0,0,1.193-.562l.7.651a2.608,2.608,0,0,1-4.527-1.607Z" transform="translate(-116.372 -233.377)" fill="#263238"/>
            <path id="Path_49468" data-name="Path 49468" d="M173.812,237.888a2.007,2.007,0,1,1,2.007,1.877A1.877,1.877,0,0,1,173.812,237.888Zm2.935,0a.935.935,0,1,0-.929,1.01A.921.921,0,0,0,176.747,237.888Z" transform="translate(-120.628 -234.377)" fill="#263238"/>
            <path id="Path_49469" data-name="Path 49469" d="M186.434,237.624v2.088h-1.057v-1.925c0-.59-.271-.861-.739-.861-.508,0-.875.312-.875.983v1.8h-1.057v-3.646h1.01v.427a1.6,1.6,0,0,1,1.207-.481A1.429,1.429,0,0,1,186.434,237.624Z" transform="translate(-124.813 -234.377)" fill="#263238"/>
            <path id="Path_49470" data-name="Path 49470" d="M192.322,234.538v.156h.936v.814h-.908v2.752h-1.057v-2.752h-.563v-.814h.563v-.163a1.272,1.272,0,0,1,1.409-1.355,1.5,1.5,0,0,1,.807.2l-.278.766a.739.739,0,0,0-.427-.129C192.492,234.01,192.322,234.179,192.322,234.538Zm1.878-1.023a.6.6,0,0,1,.657-.59.594.594,0,0,1,.658.569.66.66,0,0,1-1.315.021Zm.129,1.1h1.057v3.646h-1.057Z" transform="translate(-128.589 -232.925)" fill="#263238"/>
            <path id="Path_49471" data-name="Path 49471" d="M203.639,236.011v.976c-.088-.007-.156-.014-.237-.014a.9.9,0,0,0-.969,1.017v1.722h-1.057v-3.646h1.01v.481A1.471,1.471,0,0,1,203.639,236.011Z" transform="translate(-133.598 -234.377)" fill="#263238"/>
            <path id="Path_49472" data-name="Path 49472" d="M213,237.624v2.088h-1.057v-1.925c0-.59-.264-.861-.691-.861-.474,0-.807.3-.807.956v1.83h-1.057v-1.925c0-.59-.25-.861-.691-.861-.468,0-.8.3-.8.956v1.83H206.84v-3.646h1.01v.42a1.477,1.477,0,0,1,1.146-.474,1.361,1.361,0,0,1,1.2.6,1.639,1.639,0,0,1,1.315-.6A1.412,1.412,0,0,1,213,237.624Z" transform="translate(-136.17 -234.377)" fill="#263238"/>
            <path id="Path_49473" data-name="Path 49473" d="M223.651,238.187h-2.759a.973.973,0,0,0,1.044.732,1.237,1.237,0,0,0,.915-.352l.562.61a2.129,2.129,0,0,1-3.585-1.288,1.856,1.856,0,0,1,1.945-1.877,1.805,1.805,0,0,1,1.9,1.891C223.671,237.983,223.658,238.1,223.651,238.187Zm-2.772-.617h1.8a.911.911,0,0,0-1.8,0Z" transform="translate(-142.281 -234.377)" fill="#263238"/>
            <path id="Path_49474" data-name="Path 49474" d="M231.9,233.5v5.029h-1.01v-.42a1.4,1.4,0,0,1-1.139.475,1.878,1.878,0,0,1,0-3.755,1.4,1.4,0,0,1,1.091.441V233.5Zm-1.037,3.206a.935.935,0,1,0-.929,1.01A.924.924,0,0,0,230.862,236.707Z" transform="translate(-146.092 -233.196)" fill="#263238"/>
            <path id="Path_49475" data-name="Path 49475" d="M236.975,238.221a.653.653,0,0,1,1.3,0,.652.652,0,0,1-1.3,0Zm.02-4.182h1.261l-.21,3.1h-.84Z" transform="translate(-150.35 -233.449)" fill="#263238"/>
          </g>
          <g id="Group_42029" data-name="Group 42029" transform="translate(30.534 57.185)">
            <path id="Path_49476" data-name="Path 49476" d="M91.717,254.485H90.169v-.4h3.562v.4H92.183v4h-.466Z" transform="translate(-90.169 -253.818)" fill="#263238"/>
            <path id="Path_49477" data-name="Path 49477" d="M101.165,256.333v1.919h-.447v-1.875a.924.924,0,0,0-.994-1.057,1.086,1.086,0,0,0-1.158,1.2v1.737h-.446v-4.67h.446v1.939a1.4,1.4,0,0,1,1.24-.6A1.267,1.267,0,0,1,101.165,256.333Z" transform="translate(-93.91 -253.583)" fill="#263238"/>
            <path id="Path_49478" data-name="Path 49478" d="M108.415,257.387v2.052h-.428v-.516a1.243,1.243,0,0,1-1.139.547c-.749,0-1.208-.39-1.208-.963,0-.51.327-.938,1.278-.938h1.051v-.2c0-.567-.321-.875-.938-.875a1.685,1.685,0,0,0-1.1.39l-.2-.334a2.1,2.1,0,0,1,1.346-.447A1.176,1.176,0,0,1,108.415,257.387Zm-.447,1.057V257.9H106.93c-.642,0-.85.252-.85.592,0,.384.309.623.837.623A1.059,1.059,0,0,0,107.969,258.444Z" transform="translate(-97.449 -254.769)" fill="#263238"/>
            <path id="Path_49479" data-name="Path 49479" d="M116.219,257.519v1.919h-.446v-1.875a.924.924,0,0,0-.994-1.057,1.085,1.085,0,0,0-1.158,1.2v1.737h-.447v-3.31h.428v.61a1.39,1.39,0,0,1,1.258-.636A1.267,1.267,0,0,1,116.219,257.519Z" transform="translate(-100.994 -254.769)" fill="#263238"/>
            <path id="Path_49480" data-name="Path 49480" d="M122.445,256.591l-.78.717v.944h-.447v-4.67h.447v3.166l1.976-1.806h.554l-1.416,1.353,1.548,1.957h-.547Z" transform="translate(-104.779 -253.583)" fill="#263238"/>
            <path id="Path_49481" data-name="Path 49481" d="M127.3,259.061l.2-.353a2,2,0,0,0,1.176.371c.63,0,.888-.213.888-.541,0-.862-2.146-.182-2.146-1.491,0-.541.466-.944,1.309-.944a2.237,2.237,0,0,1,1.171.309l-.2.358a1.7,1.7,0,0,0-.975-.283c-.6,0-.862.233-.862.548,0,.893,2.146.22,2.146,1.491,0,.573-.5.944-1.365.944A2.216,2.216,0,0,1,127.3,259.061Z" transform="translate(-107.641 -254.769)" fill="#263238"/>
            <path id="Path_49482" data-name="Path 49482" d="M137.736,254.485v1.731h2.278v.4h-2.278v1.87h-.465v-4.406h3.021v.4Z" transform="translate(-112.333 -253.818)" fill="#263238"/>
            <path id="Path_49483" data-name="Path 49483" d="M143.771,257.783a1.683,1.683,0,1,1,1.686,1.686A1.628,1.628,0,0,1,143.771,257.783Zm2.914,0a1.232,1.232,0,1,0-1.227,1.29A1.207,1.207,0,0,0,146.685,257.783Z" transform="translate(-115.391 -254.769)" fill="#263238"/>
            <path id="Path_49484" data-name="Path 49484" d="M153.519,256.1v.434c-.038,0-.076-.006-.107-.006a1.071,1.071,0,0,0-1.114,1.221v1.687h-.446v-3.31h.428v.648A1.249,1.249,0,0,1,153.519,256.1Z" transform="translate(-119.193 -254.769)" fill="#263238"/>
            <path id="Path_49485" data-name="Path 49485" d="M160.785,256.965v1.523h-.459v-1.523l-1.763-2.883h.5l1.51,2.473,1.511-2.473h.465Z" transform="translate(-122.352 -253.818)" fill="#263238"/>
            <path id="Path_49486" data-name="Path 49486" d="M165.931,257.783a1.683,1.683,0,1,1,1.686,1.686A1.628,1.628,0,0,1,165.931,257.783Zm2.914,0a1.232,1.232,0,1,0-1.227,1.29A1.207,1.207,0,0,0,168.845,257.783Z" transform="translate(-125.819 -254.769)" fill="#263238"/>
            <path id="Path_49487" data-name="Path 49487" d="M176.966,256.151v3.31h-.428v-.6a1.317,1.317,0,0,1-1.19.635,1.282,1.282,0,0,1-1.4-1.422v-1.919h.447v1.875a.927.927,0,0,0,.994,1.064,1.077,1.077,0,0,0,1.127-1.2v-1.737Z" transform="translate(-129.593 -254.791)" fill="#263238"/>
            <path id="Path_49488" data-name="Path 49488" d="M183.675,256.1v.434c-.038,0-.075-.006-.107-.006a1.071,1.071,0,0,0-1.114,1.221v1.687h-.447v-3.31h.428v.648A1.248,1.248,0,0,1,183.675,256.1Z" transform="translate(-133.383 -254.769)" fill="#263238"/>
            <path id="Path_49489" data-name="Path 49489" d="M189.327,256.252a2.314,2.314,0,1,1,2.316,2.24A2.217,2.217,0,0,1,189.327,256.252Zm4.16,0a1.851,1.851,0,1,0-1.844,1.825A1.785,1.785,0,0,0,193.487,256.252Z" transform="translate(-136.828 -253.784)" fill="#263238"/>
            <path id="Path_49490" data-name="Path 49490" d="M201.522,256.1v.434c-.038,0-.075-.006-.107-.006a1.071,1.071,0,0,0-1.114,1.221v1.687h-.446v-3.31h.428v.648A1.248,1.248,0,0,1,201.522,256.1Z" transform="translate(-141.782 -254.769)" fill="#263238"/>
            <path id="Path_49491" data-name="Path 49491" d="M207.189,253.583v4.67h-.428V257.6a1.433,1.433,0,0,1-1.278.686,1.684,1.684,0,0,1,0-3.367,1.447,1.447,0,0,1,1.259.654v-1.989Zm-.441,3.015a1.232,1.232,0,1,0-1.227,1.29A1.211,1.211,0,0,0,206.749,256.6Z" transform="translate(-143.655 -253.583)" fill="#263238"/>
            <path id="Path_49492" data-name="Path 49492" d="M215.107,257.922h-2.769a1.225,1.225,0,0,0,1.3,1.152,1.3,1.3,0,0,0,1.013-.434l.252.29a1.75,1.75,0,0,1-3.015-1.145,1.594,1.594,0,0,1,1.617-1.68,1.578,1.578,0,0,1,1.6,1.68C215.113,257.821,215.107,257.871,215.107,257.922Zm-2.769-.334h2.348a1.176,1.176,0,0,0-2.348,0Z" transform="translate(-147.445 -254.769)" fill="#263238"/>
            <path id="Path_49493" data-name="Path 49493" d="M221.366,256.1v.434c-.038,0-.076-.006-.107-.006a1.071,1.071,0,0,0-1.114,1.221v1.687H219.7v-3.31h.428v.648A1.249,1.249,0,0,1,221.366,256.1Z" transform="translate(-151.119 -254.769)" fill="#263238"/>
          </g>
          <g id="Group_42032" data-name="Group 42032" transform="translate(37.537 71.523)">
            <g id="Group_42030" data-name="Group 42030">
              <path id="Path_49494" data-name="Path 49494" d="M149.741,296.592H111.359a7.964,7.964,0,0,1-7.963-7.963h0a7.963,7.963,0,0,1,7.963-7.963h38.382a7.963,7.963,0,0,1,7.963,7.963h0A7.964,7.964,0,0,1,149.741,296.592Z" transform="translate(-103.396 -280.665)" fill="#9ac225"/>
            </g>
            <g id="Group_42031" data-name="Group 42031" transform="translate(20.584 6.107)">
              <path id="Path_49495" data-name="Path 49495" d="M142.275,292.283h1.36a1.561,1.561,0,1,1,0,3.111h-1.36Zm1.333,2.622a1.069,1.069,0,1,0,0-2.133h-.756V294.9Z" transform="translate(-142.275 -292.239)" fill="#fff"/>
              <path id="Path_49496" data-name="Path 49496" d="M148.781,293.8a1.677,1.677,0,1,1,1.675,1.6A1.593,1.593,0,0,1,148.781,293.8Zm2.768,0a1.093,1.093,0,1,0-1.093,1.093A1.06,1.06,0,0,0,151.549,293.8Z" transform="translate(-145.336 -292.199)" fill="#fff"/>
              <path id="Path_49497" data-name="Path 49497" d="M159.025,292.283v3.111h-.475l-1.715-2.106v2.106h-.573v-3.111h.475l1.715,2.106v-2.106Z" transform="translate(-148.856 -292.239)" fill="#fff"/>
              <path id="Path_49498" data-name="Path 49498" d="M165.386,294.909v.484h-2.333v-3.111h2.27v.484h-1.693v.808h1.5v.475h-1.5v.858Z" transform="translate(-152.052 -292.239)" fill="#fff"/>
            </g>
          </g>
          <g id="Group_42035" data-name="Group 42035" transform="translate(55.499 18.343)">
            <g id="Group_42033" data-name="Group 42033" transform="translate(0)">
              <path id="Path_49499" data-name="Path 49499" d="M147.583,200.745a10.262,10.262,0,1,1,10.262-10.262A10.274,10.274,0,0,1,147.583,200.745Zm0-19.465a9.2,9.2,0,1,0,9.2,9.2A9.214,9.214,0,0,0,147.583,181.28Z" transform="translate(-137.321 -180.221)" fill="#9ac225"/>
            </g>
            <g id="Group_42034" data-name="Group 42034" transform="translate(6.449 7.099)">
              <path id="Path_49500" data-name="Path 49500" d="M152.571,199.955a.53.53,0,0,1-.35-.132c-.9-.79-2.432-2.159-2.63-2.455a.53.53,0,0,1,.875-.6c.143.18,1.116,1.07,2.092,1.935l5.2-4.932a.529.529,0,0,1,.729.768l-5.548,5.266A.527.527,0,0,1,152.571,199.955Z" transform="translate(-149.502 -193.63)" fill="#9ac225"/>
            </g>
          </g>
          <g id="Group_42037" data-name="Group 42037" transform="translate(0.462 9.874)">
            <g id="Group_42036" data-name="Group 42036">
              <path id="Path_49501" data-name="Path 49501" d="M162.153,164.362c0,.076-28.832.138-64.389.138s-64.4-.062-64.4-.138,28.825-.138,64.4-.138S162.153,164.286,162.153,164.362Z" transform="translate(-33.369 -164.224)" fill="#263238"/>
            </g>
          </g>
          <g id="Group_42041" data-name="Group 42041" transform="translate(3.957 4.186)">
            <g id="Group_42038" data-name="Group 42038" transform="translate(0 0)">
              <ellipse id="Ellipse_1227" data-name="Ellipse 1227" cx="0.749" cy="0.749" rx="0.749" ry="0.749" fill="#263238"/>
            </g>
            <g id="Group_42039" data-name="Group 42039" transform="translate(2.796 0)">
              <ellipse id="Ellipse_1228" data-name="Ellipse 1228" cx="0.749" cy="0.749" rx="0.749" ry="0.749" fill="#263238"/>
            </g>
            <g id="Group_42040" data-name="Group 42040" transform="translate(5.549)">
              <path id="Path_49502" data-name="Path 49502" d="M51.95,154.232a.749.749,0,1,1-.749-.75A.749.749,0,0,1,51.95,154.232Z" transform="translate(-50.452 -153.482)" fill="#263238"/>
            </g>
          </g>
        </g>
      </g>
      <g id="Character" transform="translate(-64.868 39.14)">
        <g id="Group_42234" data-name="Group 42234" transform="translate(0 0)">
          <g id="Group_42043" data-name="Group 42043" transform="translate(173.112 73.777)">
            <path id="Path_49503" data-name="Path 49503" d="M433.673,264.512s6.425-3.909,7.873-2.761a9.2,9.2,0,0,1,2.787,4.457s3.394-12.945,6.632-12.454c1.857.282.946,1.729.113,3.546a68.587,68.587,0,0,0-2.092,7.88s6.141-7.286,7.946-7.154c1.4.1,1.6,1.33-.411,3.3s-5.344,8.174-5.344,8.174,4.3-4.011,6.079-4.032c1.417-.017,2.333.967.5,2.559s-4.61,2.787-6.091,5.668c-1.825,3.551-5.716,12.4-5.716,12.4l-13.62-4.822s-2.217-9.035-2.305-11.23c0,0,.187-4.639.16-5.465s2.164-1.038,2.829.548.363,3.249.633,4.3a4.036,4.036,0,0,0,1.521,2.5c.771.472,2.734.5,3.235-.079a8.347,8.347,0,0,0,1.241-3.323,15.081,15.081,0,0,0-.038-2.693S433.948,268.138,433.673,264.512Z" transform="translate(-430.022 -253.741)" fill="#ffbe9d"/>
          </g>
          <g id="Group_42056" data-name="Group 42056" transform="translate(0 115.053)">
            <g id="Group_42051" data-name="Group 42051" transform="translate(0 0)">
              <g id="Group_42044" data-name="Group 42044">
                <path id="Path_49504" data-name="Path 49504" d="M126.786,343.354l-9.464-3.545s-9.635-5.641-11.419-3.638a1.979,1.979,0,0,0-2.753,1.124c-.491,1.178,1.128,2.888,1.128,2.888s-.5.511.294,2.24,9.944,7.183,9.944,7.183,11.891,6.485,16.7,9.586l8.3-11.284-1.154-.431s-.685-5.623-2.987-7.123c-2.5-1.631-5.526-6.046-6.191-7.775s-3.858-.931-3.325,2.66,3.325,4.523,3.059,6.917S126.786,343.354,126.786,343.354Z" transform="translate(-103.057 -331.703)" fill="#ffbe9d"/>
              </g>
              <g id="Group_42046" data-name="Group 42046" transform="translate(1.119 8.42)">
                <g id="Group_42045" data-name="Group 42045">
                  <path id="Path_49505" data-name="Path 49505" d="M113.272,352.151a39.332,39.332,0,0,1-4.118-2.15,39.1,39.1,0,0,1-3.983-2.39,39.3,39.3,0,0,1,4.118,2.15A39.126,39.126,0,0,1,113.272,352.151Z" transform="translate(-105.171 -347.607)" fill="#eb996e"/>
                </g>
              </g>
              <g id="Group_42048" data-name="Group 42048" transform="translate(2.845 4.466)">
                <g id="Group_42047" data-name="Group 42047">
                  <path id="Path_49506" data-name="Path 49506" d="M119.424,345.976a12.332,12.332,0,0,1-1.7-.676c-1.035-.45-2.455-1.1-3.99-1.881a43.447,43.447,0,0,1-3.834-2.19c-.471-.312-.849-.571-1.1-.767s-.385-.3-.374-.32a17.256,17.256,0,0,1,1.575.921c.967.574,2.327,1.328,3.857,2.111s2.933,1.454,3.945,1.949A11.709,11.709,0,0,1,119.424,345.976Z" transform="translate(-108.43 -340.139)" fill="#eb996e"/>
                </g>
              </g>
              <g id="Group_42050" data-name="Group 42050" transform="translate(7.48 8.346)">
                <g id="Group_42049" data-name="Group 42049">
                  <path id="Path_49507" data-name="Path 49507" d="M125.535,354.637a6.027,6.027,0,0,1-.839-.455l-2.231-1.332-.025-.015-.014-.03a31.476,31.476,0,0,0-1.606-3.076,7.492,7.492,0,0,0-1.2-1.591,1.519,1.519,0,0,0-1.865-.14.931.931,0,0,0-.3.272.163.163,0,0,1,.022.063l.038.118c.024.078.054.157.083.236.115.316.24.627.362.933l.724,1.767,1.28,3.053-.017-.028,1.9,2.231.508.619a.983.983,0,0,1,.162.23c-.008.007-.079-.059-.208-.19l-.551-.582-1.972-2.169-.01-.011-.007-.016c-.394-.883-.844-1.909-1.326-3.037l-.738-1.766c-.124-.307-.25-.617-.368-.94-.03-.081-.06-.16-.087-.246l-.041-.127a.853.853,0,0,1-.028-.189.6.6,0,0,1,.193-.282,1.767,1.767,0,0,1,.226-.171,1.844,1.844,0,0,1,1.141-.293,1.824,1.824,0,0,1,1.048.46,7.529,7.529,0,0,1,1.247,1.665,28.361,28.361,0,0,1,1.572,3.129l-.039-.045,2.183,1.407A6.13,6.13,0,0,1,125.535,354.637Z" transform="translate(-117.184 -347.466)" fill="#eb996e"/>
                </g>
              </g>
            </g>
            <g id="Group_42053" data-name="Group 42053" transform="translate(17.726 14.552)">
              <g id="Group_42052" data-name="Group 42052">
                <path id="Path_49508" data-name="Path 49508" d="M144.13,360.243a5.792,5.792,0,0,1-1.163-.285,11.536,11.536,0,0,0-2.8-.494,5.121,5.121,0,0,0-2.7.661,10.689,10.689,0,0,0-.933.716,2.14,2.14,0,0,1,.828-.88,4.83,4.83,0,0,1,2.809-.772,9.385,9.385,0,0,1,2.851.584A4.7,4.7,0,0,1,144.13,360.243Z" transform="translate(-136.537 -359.187)" fill="#eb996e"/>
              </g>
            </g>
            <g id="Group_42055" data-name="Group 42055" transform="translate(23.719 13.104)">
              <g id="Group_42054" data-name="Group 42054">
                <path id="Path_49509" data-name="Path 49509" d="M148.745,356.457c.063.047-.173.456-.4.982s-.374.975-.452.96-.047-.513.2-1.071S148.688,356.411,148.745,356.457Z" transform="translate(-147.857 -356.453)" fill="#eb996e"/>
              </g>
            </g>
          </g>
          <g id="Group_42061" data-name="Group 42061" transform="translate(79.018 16.428)">
            <g id="Group_42057" data-name="Group 42057">
              <path id="Path_49510" data-name="Path 49510" d="M252.441,212.163c.653-4.461,5.847-10.856,10.443-10.863a11.869,11.869,0,0,1-.1-13.049c1.774-2.655,4.634-4.606,5.847-7.548,1.372-3.329.319-7.089.45-10.677.192-5.252,2.924-10.048,5.585-14.611,2.437-4.177,5.409-8.757,10.2-9.783,3.034-.649,6.181.309,9.03,1.522a48.88,48.88,0,0,1,27.869,32.169c.871,3.382,1.454,7.041,3.811,9.654,2.5,2.768,6.867,4.269,7.616,7.89.537,2.6-1.129,5.207-.879,7.844.21,2.21,4.348,8.652,5.3,10.664,1.644,3.467,1.049,7.213-.624,10.666a16.327,16.327,0,0,1-9.713,7.757L285.032,219.72c-3.975,2.263-7.935,11.017-12.5,11.555s-10.132,2.524-14.522-2.281C253.41,223.959,251.787,216.624,252.441,212.163Z" transform="translate(-252.302 -145.423)" fill="#263238"/>
            </g>
            <g id="Group_42058" data-name="Group 42058" transform="translate(59.257 24.716)">
              <path id="Path_49511" data-name="Path 49511" d="M375.164,192.105c-.473,3.536.5,9.381,2.429,12.4,1.3,2.027,3.462,3.346,5.6,4.506s4.371,2.272,5.99,4.064,2.487,4.477,1.4,6.622c3.806,1.419,5.514,6.268,4.117,10.018s-5.225,6.273-9.225,7.022L368.05,231.5l-3.827-22.238,10.059-17.154" transform="translate(-364.223 -192.105)" fill="#263238"/>
            </g>
            <g id="Group_42060" data-name="Group 42060" transform="translate(72.336 47.386)">
              <g id="Group_42059" data-name="Group 42059">
                <path id="Path_49512" data-name="Path 49512" d="M388.927,234.925a2.025,2.025,0,0,1,.34.148,9.738,9.738,0,0,1,.952.495,12.632,12.632,0,0,1,3.054,2.546,14.039,14.039,0,0,1,1.628,2.26,14.246,14.246,0,0,1,1.269,2.965,12.821,12.821,0,0,1,.047,7.421l-.064-.159a12.9,12.9,0,0,1,2.835,2.154,13.207,13.207,0,0,1,3.8,7.759,12.731,12.731,0,0,1-1.247,6.973,13.152,13.152,0,0,1-2.862,3.851,10.679,10.679,0,0,1-1.014.825,2.831,2.831,0,0,1-.379.253,2.82,2.82,0,0,1,.345-.3c.237-.181.565-.473.975-.859a13.571,13.571,0,0,0,2.759-3.858,12.655,12.655,0,0,0,1.171-6.859,13.046,13.046,0,0,0-3.743-7.593,12.726,12.726,0,0,0-2.773-2.111l-.1-.053.032-.106a12.665,12.665,0,0,0-.017-7.271,13.715,13.715,0,0,0-2.8-5.175,13.2,13.2,0,0,0-2.97-2.581c-.383-.262-.716-.4-.923-.533A2.116,2.116,0,0,1,388.927,234.925Z" transform="translate(-388.927 -234.924)" fill="#455a64"/>
              </g>
            </g>
          </g>
          <g id="Group_42087" data-name="Group 42087" transform="translate(26.845 79.19)">
            <g id="Group_42062" data-name="Group 42062" transform="translate(0 7.654)">
              <path id="Path_49513" data-name="Path 49513" d="M226.718,278.422s-7.787,2.368-10.516,6.339c-1.931,2.808-21.7,45.622-21.7,45.622l-30.011-9.023-10.73,14.172,33.391,18.509a20.343,20.343,0,0,0,19.88-.088h0a20.34,20.34,0,0,0,8.016-8.292l8.49-16.267Z" transform="translate(-153.76 -278.422)" fill="#f4ebdd"/>
            </g>
            <g id="Group_42068" data-name="Group 42068" transform="translate(63.21)">
              <g id="Group_42063" data-name="Group 42063">
                <path id="Path_49514" data-name="Path 49514" d="M274.927,364.87l4.686-20.2-3.55-14.666c-2.284-7.552-4.245-19.853-1.76-29.761l8.3-28.491,9.126-4.2,20.883-3.592c.8.267,21.836,6.208,21.836,6.208a32.626,32.626,0,0,1,4.08,1.14l2.412,15.6-7.251,25.706-3.158,25.613,6.938,26.64Z" transform="translate(-273.147 -263.966)" fill="#f4ebdd"/>
              </g>
              <g id="Group_42065" data-name="Group 42065" transform="translate(0.229 38.066)">
                <g id="Group_42064" data-name="Group 42064">
                  <path id="Path_49515" data-name="Path 49515" d="M273.579,335.863" transform="translate(-273.579 -335.863)" fill="#f4ebdd" stroke="#fff" stroke-miterlimit="10" stroke-width="0.02"/>
                </g>
              </g>
              <g id="Group_42067" data-name="Group 42067" transform="translate(49.157 39.95)">
                <g id="Group_42066" data-name="Group 42066" transform="translate(0 0)">
                  <path id="Path_49516" data-name="Path 49516" d="M365.993,339.421" transform="translate(-365.993 -339.421)" fill="#f4ebdd" stroke="#fff" stroke-miterlimit="10" stroke-width="0.02"/>
                </g>
              </g>
            </g>
            <g id="Group_42069" data-name="Group 42069" transform="translate(76.865 3.058)">
              <path id="Path_49517" data-name="Path 49517" d="M299.132,272.452l6.056-2.71,27.293.38,6.455,3.747s-22.548,24.886-28.206,25.709C296.5,301.648,299.132,272.452,299.132,272.452Z" transform="translate(-298.939 -269.742)" fill="#ffbe9d"/>
            </g>
            <g id="Group_42070" data-name="Group 42070" transform="translate(117.92 7.133)">
              <path id="Path_49518" data-name="Path 49518" d="M386.558,277.438s4.088.92,7.592,8.4,9.17,28.282,9.17,28.282l2.422-22.049,19.733,2.171-3.819,52.7s-6.983,10.127-18.664,9.192-26.511-37.858-26.511-37.858Z" transform="translate(-376.481 -277.438)" fill="#f4ebdd"/>
            </g>
            <g id="Group_42072" data-name="Group 42072" transform="translate(141.675 21.761)">
              <g id="Group_42071" data-name="Group 42071">
                <path id="Path_49519" data-name="Path 49519" d="M421.353,354.042a.479.479,0,0,1,0-.128c0-.1.009-.223.015-.373q.032-.527.086-1.434c.075-1.246.224-3.045.43-5.266.411-4.443,1.164-10.561,2.086-17.3s1.705-12.853,2.165-17.289c.231-2.217.409-4.012.517-5.254q.087-.9.138-1.43c.017-.149.031-.271.043-.371a.438.438,0,0,1,.024-.126.45.45,0,0,1,0,.128l-.015.373q-.032.526-.086,1.434c-.075,1.245-.223,3.044-.43,5.265-.411,4.443-1.164,10.562-2.087,17.306s-1.7,12.851-2.165,17.286c-.231,2.217-.409,4.012-.517,5.255q-.087.9-.138,1.43c-.017.149-.031.271-.043.371A.438.438,0,0,1,421.353,354.042Z" transform="translate(-421.348 -305.068)" fill="#263238"/>
              </g>
            </g>
            <g id="Group_42074" data-name="Group 42074" transform="translate(39.463 59.835)">
              <g id="Group_42073" data-name="Group 42073">
                <path id="Path_49520" data-name="Path 49520" d="M229.914,388.13a1.43,1.43,0,0,1-.218-.394,11.554,11.554,0,0,1-.458-1.136,17.028,17.028,0,0,1-.774-7.988,11.287,11.287,0,0,1,.232-1.2,1.438,1.438,0,0,1,.138-.429c.044.01-.075.636-.177,1.655a20.183,20.183,0,0,0,.766,7.9C229.718,387.521,229.956,388.113,229.914,388.13Z" transform="translate(-228.295 -376.98)" fill="#263238"/>
              </g>
            </g>
            <g id="Group_42076" data-name="Group 42076" transform="translate(40.071 59.114)">
              <g id="Group_42075" data-name="Group 42075">
                <path id="Path_49521" data-name="Path 49521" d="M233.774,387.978a1.938,1.938,0,0,1-.348-.393,14.173,14.173,0,0,1-.823-1.169,20.318,20.318,0,0,1-3.078-8.847,14.032,14.032,0,0,1-.08-1.427,1.95,1.95,0,0,1,.028-.524c.047,0,.08.742.245,1.928a23.568,23.568,0,0,0,3.051,8.769C233.376,387.346,233.812,387.95,233.774,387.978Z" transform="translate(-229.444 -375.617)" fill="#263238"/>
              </g>
            </g>
            <g id="Group_42078" data-name="Group 42078" transform="translate(62.361 24.393)">
              <g id="Group_42077" data-name="Group 42077">
                <path id="Path_49522" data-name="Path 49522" d="M276.946,310.038a2.6,2.6,0,0,1-.1.427l-.337,1.21-1.258,4.443a98.035,98.035,0,0,0-3.136,14.872,34.655,34.655,0,0,0,1.274,15.015c.558,1.865,1.086,3.351,1.448,4.38q.262.743.417,1.184a2.572,2.572,0,0,1,.129.42,2.738,2.738,0,0,1-.181-.4l-.465-1.167c-.393-1.018-.95-2.5-1.534-4.36a35.745,35.745,0,0,1-1.456-6.7,36.29,36.29,0,0,1,.094-8.4,91.315,91.315,0,0,1,3.223-14.895c.547-1.873,1.014-3.38,1.343-4.42q.243-.75.387-1.195A2.568,2.568,0,0,1,276.946,310.038Z" transform="translate(-271.544 -310.038)" fill="#263238"/>
              </g>
            </g>
            <g id="Group_42080" data-name="Group 42080" transform="translate(114.895 8.513)">
              <g id="Group_42079" data-name="Group 42079">
                <path id="Path_49523" data-name="Path 49523" d="M378.816,330.645a.577.577,0,0,1-.071-.13l-.185-.391-.687-1.516c-.292-.661-.665-1.464-1.063-2.411l-1.3-3.241c-.466-1.206-.914-2.551-1.428-3.982q-.338-1.09-.7-2.252-.178-.581-.361-1.179c-.114-.4-.213-.812-.322-1.226a54.06,54.06,0,0,1-1.866-10.964,31.6,31.6,0,0,1,1.141-11.047,19.59,19.59,0,0,1,4.371-7.92,15.286,15.286,0,0,1,4.926-3.613,11.48,11.48,0,0,1,1.563-.579l.418-.117a.6.6,0,0,1,.145-.031.591.591,0,0,1-.137.058l-.408.143a13.607,13.607,0,0,0-1.535.624,15.611,15.611,0,0,0-4.827,3.647,19.6,19.6,0,0,0-4.271,7.861,31.7,31.7,0,0,0-1.109,10.959,54.842,54.842,0,0,0,1.837,10.915l.316,1.223.354,1.177q.352,1.16.682,2.25c.5,1.432.94,2.777,1.393,3.986l1.255,3.251c.384.951.742,1.759,1.019,2.427l.64,1.536.16.4A.592.592,0,0,1,378.816,330.645Z" transform="translate(-370.768 -280.044)" fill="#263238"/>
              </g>
            </g>
            <g id="Group_42082" data-name="Group 42082" transform="translate(113.659 35.245)" opacity="0.3">
              <g id="Group_42081" data-name="Group 42081" transform="translate(0)">
                <path id="Path_49524" data-name="Path 49524" d="M370.2,330.535c-2.579,12.2-2.614,24.757,1.828,36.412.257.676,1.277,3.08,2,3.115.916.046,1.351-1.095,1.51-2,.326-1.857.525-4.914.851-6.772.409-2.326.961-7.71.961-7.71s-2.134-4.883-3.071-7.5a74.563,74.563,0,0,1-4.025-15.16" transform="translate(-368.434 -330.535)"/>
              </g>
            </g>
            <g id="Group_42084" data-name="Group 42084" transform="translate(80.501 82.521)">
              <g id="Group_42083" data-name="Group 42083">
                <path id="Path_49525" data-name="Path 49525" d="M338.62,419.829a1.925,1.925,0,0,1-.2.319l-.634.884-.464.635c-.177.226-.389.456-.607.712a21.218,21.218,0,0,1-1.544,1.678l-.948.929c-.333.32-.716.613-1.092.937a31.047,31.047,0,0,1-2.53,1.92,32.515,32.515,0,0,1-13.46,5.246,31.173,31.173,0,0,1-3.162.3c-.5.015-.976.059-1.438.049l-1.327-.042a21.068,21.068,0,0,1-2.272-.191c-.334-.041-.645-.067-.929-.113l-.771-.154-1.064-.222a.191.191,0,1,1,.012-.054l1.071.171.772.129c.283.039.595.057.927.091a22.618,22.618,0,0,0,2.262.149l1.318.024c.459,0,.935-.044,1.428-.065.989-.022,2.034-.184,3.135-.321a33.134,33.134,0,0,0,13.357-5.206c.9-.644,1.783-1.232,2.525-1.885.377-.318.76-.6,1.094-.919l.955-.91a22.606,22.606,0,0,0,1.565-1.641c.222-.249.439-.474.622-.694l.481-.618.673-.851A2.014,2.014,0,0,1,338.62,419.829Z" transform="translate(-305.806 -419.829)" fill="#263238"/>
              </g>
            </g>
            <g id="Group_42086" data-name="Group 42086" transform="translate(101.178 74.446)">
              <g id="Group_42085" data-name="Group 42085">
                <path id="Path_49526" data-name="Path 49526" d="M352.69,404.576a2.313,2.313,0,0,1-.07.579,13.318,13.318,0,0,1-.369,1.544,18.4,18.4,0,0,1-5.633,8.694,13.355,13.355,0,0,1-1.258.968,2.367,2.367,0,0,1-.5.3c-.029-.041.648-.518,1.628-1.415a20.344,20.344,0,0,0,5.577-8.607C352.483,405.379,352.642,404.566,352.69,404.576Z" transform="translate(-344.859 -404.576)" fill="#263238"/>
              </g>
            </g>
          </g>
          <g id="Group_42233" data-name="Group 42233" transform="translate(92.6)">
            <g id="Group_42129" data-name="Group 42129" transform="translate(33.522)">
              <g id="Group_42088" data-name="Group 42088" transform="translate(0 13.262)">
                <path id="Path_49527" data-name="Path 49527" d="M341.39,139.445a21.449,21.449,0,0,1,18.65,31.782c-1.213,2.207-2.959,4.3-5.357,5.066a44.215,44.215,0,0,0-13.413-34.339" transform="translate(-341.27 -139.445)" fill="#9ac225"/>
              </g>
              <g id="Group_42089" data-name="Group 42089" transform="translate(8.345 2.841)">
                <path id="Path_49528" data-name="Path 49528" d="M357.454,132.1c-1.1-2.281.077-5.135,2.034-6.741s4.5-2.255,6.966-2.843,5.012-1.2,7.012-2.75c-.289,3.966-1.274,8.046-3.841,11.082s-7.013,4.729-10.678,3.186" transform="translate(-357.032 -119.761)" fill="#9ac225"/>
              </g>
              <g id="Group_42090" data-name="Group 42090" transform="translate(0.303 0)">
                <path id="Path_49529" data-name="Path 49529" d="M352.849,132.183a5.6,5.6,0,0,1-5.2-.767,11.861,11.861,0,0,1-3.472-4.18,17.969,17.969,0,0,1-2.231-6.314,10.573,10.573,0,0,1,1.117-6.526c2.9,3.088,6.09,5.683,7.747,9.58a11.539,11.539,0,0,1-.188,8.218" transform="translate(-341.842 -114.396)" fill="#9ac225"/>
              </g>
              <g id="Group_42092" data-name="Group 42092" transform="translate(15.214 30.626)">
                <g id="Group_42091" data-name="Group 42091">
                  <path id="Path_49530" data-name="Path 49530" d="M374.309,172.241a3.866,3.866,0,0,1,.145.736c.04.238.082.531.109.873s.077.731.086,1.163a23.634,23.634,0,0,1-.053,3.036,24.474,24.474,0,0,1-1.718,7.22,23.665,23.665,0,0,1-1.32,2.735c-.2.383-.42.708-.6,1s-.347.536-.49.731a3.908,3.908,0,0,1-.461.592,3.937,3.937,0,0,1,.371-.652c.129-.2.284-.452.448-.751s.372-.628.561-1.013a27.023,27.023,0,0,0,1.255-2.736,26.244,26.244,0,0,0,1.7-7.148,26.945,26.945,0,0,0,.112-3.008c0-.429-.03-.816-.044-1.157s-.038-.634-.062-.873A3.983,3.983,0,0,1,374.309,172.241Z" transform="translate(-370.005 -172.241)" fill="#263238"/>
                </g>
              </g>
              <g id="Group_42094" data-name="Group 42094" transform="translate(8.132 7.835)">
                <g id="Group_42093" data-name="Group 42093">
                  <path id="Path_49531" data-name="Path 49531" d="M366.362,137.786a3.908,3.908,0,0,1-.587.467,6.4,6.4,0,0,1-1.912.74,14.9,14.9,0,0,1-6.761-.385l-.077-.02-.018-.079c-.035-.159-.073-.329-.111-.5a11.836,11.836,0,0,1-.175-3.938,6.708,6.708,0,0,1,1.112-3.021,5.582,5.582,0,0,1,1.571-1.5,4.328,4.328,0,0,1,.713-.354,4.328,4.328,0,0,1-.653.443,5.967,5.967,0,0,0-1.469,1.52,6.7,6.7,0,0,0-1.022,2.944,12.014,12.014,0,0,0,.193,3.85l.109.49-.095-.1a15.555,15.555,0,0,0,6.644.463,7.024,7.024,0,0,0,1.9-.644A4,4,0,0,1,366.362,137.786Z" transform="translate(-356.629 -129.194)" fill="#263238"/>
                </g>
              </g>
              <g id="Group_42096" data-name="Group 42096" transform="translate(8.634 9.558)">
                <g id="Group_42095" data-name="Group 42095">
                  <path id="Path_49532" data-name="Path 49532" d="M368.977,132.456c.008.05-.775.16-1.988.519a17.21,17.21,0,0,0-2.08.771,16.892,16.892,0,0,0-4.524,2.964,17.252,17.252,0,0,0-1.536,1.6c-.814.969-1.227,1.642-1.27,1.615a2.14,2.14,0,0,1,.257-.493,11.225,11.225,0,0,1,.861-1.246,14.966,14.966,0,0,1,1.515-1.664,15.636,15.636,0,0,1,4.595-3.011,14.9,14.9,0,0,1,2.129-.725,11.16,11.16,0,0,1,1.486-.293A2.124,2.124,0,0,1,368.977,132.456Z" transform="translate(-357.577 -132.448)" fill="#263238"/>
                </g>
              </g>
              <g id="Group_42098" data-name="Group 42098" transform="translate(4.338 13.427)">
                <g id="Group_42097" data-name="Group 42097">
                  <path id="Path_49533" data-name="Path 49533" d="M356.321,144.053c.009,0,0,.057-.021.159a2.279,2.279,0,0,1-.142.438,3.428,3.428,0,0,1-1.047,1.324,3.639,3.639,0,0,1-2.38.768,3.588,3.588,0,0,1-3.114-4.544,3.64,3.64,0,0,1,1.576-1.942,3.433,3.433,0,0,1,1.613-.5,2.272,2.272,0,0,1,.459.026c.1.016.157.029.156.038,0,.029-.221,0-.607.043a3.6,3.6,0,0,0-1.517.557,3.515,3.515,0,0,0-1.437,1.854,3.373,3.373,0,0,0,2.887,4.214,3.512,3.512,0,0,0,2.247-.671,3.61,3.61,0,0,0,1.067-1.214C356.243,144.259,356.293,144.045,356.321,144.053Z" transform="translate(-349.463 -139.756)" fill="#263238"/>
                </g>
              </g>
              <g id="Group_42100" data-name="Group 42100" transform="translate(4.705 16.557)">
                <g id="Group_42099" data-name="Group 42099">
                  <path id="Path_49534" data-name="Path 49534" d="M350.228,146.967c-.025.026-.184-.288.067-.7a1.2,1.2,0,0,1,.628-.491,2.327,2.327,0,0,1,.946-.1,4.331,4.331,0,0,1,2.246.67c-.029.076-1-.307-2.265-.395a1.524,1.524,0,0,0-1.4.427A1.4,1.4,0,0,0,350.228,146.967Z" transform="translate(-350.156 -145.667)" fill="#263238"/>
                </g>
              </g>
              <g id="Group_42102" data-name="Group 42102" transform="translate(0.336)">
                <g id="Group_42101" data-name="Group 42101">
                  <path id="Path_49535" data-name="Path 49535" d="M343.092,114.4a6.547,6.547,0,0,0-.809,2.265,15.678,15.678,0,0,0-.125,2.628,17.169,17.169,0,0,0,.282,3.205,15.9,15.9,0,0,0,2.261,5.36c.43.616.809,1.094,1.077,1.417s.436.484.423.5a7.549,7.549,0,0,1-1.659-1.8,14.887,14.887,0,0,1-2.373-5.419,16.234,16.234,0,0,1-.266-3.259,14.251,14.251,0,0,1,.187-2.663,5.331,5.331,0,0,1,.6-1.7A1.916,1.916,0,0,1,343.092,114.4Z" transform="translate(-341.904 -114.395)" fill="#263238"/>
                </g>
              </g>
              <g id="Group_42104" data-name="Group 42104" transform="translate(4.263 6.281)">
                <g id="Group_42103" data-name="Group 42103">
                  <path id="Path_49536" data-name="Path 49536" d="M349.326,126.259a4.127,4.127,0,0,1,.744.9,15.68,15.68,0,0,1,1.406,2.453,14.8,14.8,0,0,1,.93,2.672,4.029,4.029,0,0,1,.182,1.158c-.086.02-.446-1.732-1.362-3.715S349.251,126.311,349.326,126.259Z" transform="translate(-349.322 -126.258)" fill="#263238"/>
                </g>
              </g>
              <g id="Group_42106" data-name="Group 42106" transform="translate(3.368 9.578)">
                <g id="Group_42105" data-name="Group 42105">
                  <path id="Path_49537" data-name="Path 49537" d="M347.634,132.488c.056-.047.947.855,2.115,1.9a16.261,16.261,0,0,1,2.043,1.988,13.688,13.688,0,0,1-2.228-1.784A9.679,9.679,0,0,1,347.634,132.488Z" transform="translate(-347.631 -132.487)" fill="#263238"/>
                </g>
              </g>
              <g id="Group_42108" data-name="Group 42108" transform="translate(7.495 22.001)">
                <g id="Group_42107" data-name="Group 42107">
                  <path id="Path_49538" data-name="Path 49538" d="M365.159,155.951s-.024.029-.076.075l-.233.2a10.683,10.683,0,0,1-.9.672,13.6,13.6,0,0,1-6.982,2.293,10.347,10.347,0,0,1-1.126,0l-.3-.022a.379.379,0,0,1-.106-.015.393.393,0,0,1,.107-.007h.306c.265.007.648,0,1.12-.03a14.417,14.417,0,0,0,6.943-2.28c.4-.257.711-.478.92-.64l.246-.182A.433.433,0,0,1,365.159,155.951Z" transform="translate(-355.427 -155.951)" fill="#fafafa"/>
                </g>
              </g>
              <g id="Group_42110" data-name="Group 42110" transform="translate(10.65 28.409)">
                <g id="Group_42109" data-name="Group 42109">
                  <path id="Path_49539" data-name="Path 49539" d="M371.081,168.054a.431.431,0,0,1-.077.074l-.236.2c-.2.171-.514.4-.907.668a15.2,15.2,0,0,1-6.937,2.5c-.474.046-.859.067-1.126.065h-.306a.4.4,0,0,1-.107-.008.41.41,0,0,1,.106-.014l.3-.02c.265-.012.648-.044,1.119-.1a16.259,16.259,0,0,0,6.9-2.488c.4-.257.713-.477.924-.637l.248-.179A.367.367,0,0,1,371.081,168.054Z" transform="translate(-361.385 -168.053)" fill="#fafafa"/>
                </g>
              </g>
              <g id="Group_42112" data-name="Group 42112" transform="translate(12.758 37.755)">
                <g id="Group_42111" data-name="Group 42111">
                  <path id="Path_49540" data-name="Path 49540" d="M372.089,185.705a1.35,1.35,0,0,1-.224.165c-.147.1-.37.237-.651.391a10.487,10.487,0,0,1-4.811,1.258c-.321,0-.58,0-.759-.022a1.354,1.354,0,0,1-.277-.034,1.393,1.393,0,0,1,.279-.008c.178,0,.437,0,.755-.013a11.635,11.635,0,0,0,4.777-1.25c.284-.144.511-.267.664-.358A1.345,1.345,0,0,1,372.089,185.705Z" transform="translate(-365.367 -185.705)" fill="#fafafa"/>
                </g>
              </g>
              <g id="Group_42114" data-name="Group 42114" transform="translate(19.825 36.315)">
                <g id="Group_42113" data-name="Group 42113">
                  <path id="Path_49541" data-name="Path 49541" d="M380.166,183a2.5,2.5,0,0,1-.715.194,2.533,2.533,0,0,1-.736.086,4.993,4.993,0,0,1,1.451-.28Z" transform="translate(-378.715 -182.986)" fill="#fafafa"/>
                </g>
              </g>
              <g id="Group_42116" data-name="Group 42116" transform="translate(13.628 47.133)">
                <g id="Group_42115" data-name="Group 42115">
                  <path id="Path_49542" data-name="Path 49542" d="M369.4,203.6a4.914,4.914,0,0,1-2.395-.175c.008-.032.535.079,1.194.127S369.4,203.567,369.4,203.6Z" transform="translate(-367.01 -203.418)" fill="#fafafa"/>
                </g>
              </g>
              <g id="Group_42118" data-name="Group 42118" transform="translate(4.509 19.625)">
                <g id="Group_42117" data-name="Group 42117">
                  <path id="Path_49543" data-name="Path 49543" d="M351.253,151.465a6.377,6.377,0,0,1-1.465.808,6.376,6.376,0,0,1,1.465-.808Z" transform="translate(-349.787 -151.462)" fill="#fafafa"/>
                </g>
              </g>
              <g id="Group_42120" data-name="Group 42120" transform="translate(0.478 14.068)">
                <g id="Group_42119" data-name="Group 42119">
                  <path id="Path_49544" data-name="Path 49544" d="M345.04,140.969a7.145,7.145,0,0,0-2.866,2.037,1.8,1.8,0,0,1,.3-.43,5.208,5.208,0,0,1,2.057-1.461A1.812,1.812,0,0,1,345.04,140.969Z" transform="translate(-342.173 -140.967)" fill="#fafafa"/>
                </g>
              </g>
              <g id="Group_42122" data-name="Group 42122" transform="translate(7.705 17.075)">
                <g id="Group_42121" data-name="Group 42121">
                  <path id="Path_49545" data-name="Path 49545" d="M356.233,149.8a5.517,5.517,0,0,0-.407-3.15,1.463,1.463,0,0,1,.236.417,4.113,4.113,0,0,1,.294,2.271A1.455,1.455,0,0,1,356.233,149.8Z" transform="translate(-355.824 -146.647)" fill="#fafafa"/>
                </g>
              </g>
              <g id="Group_42124" data-name="Group 42124" transform="translate(8.945 2.958)">
                <g id="Group_42123" data-name="Group 42123">
                  <path id="Path_49546" data-name="Path 49546" d="M373.717,119.982a6.437,6.437,0,0,1-.58.618,11.754,11.754,0,0,1-1.831,1.409,23.243,23.243,0,0,1-3.044,1.574c-1.18.523-2.5,1.039-3.839,1.681a14.993,14.993,0,0,0-3.511,2.24,8.843,8.843,0,0,0-2.062,2.684,6.438,6.438,0,0,0-.629,2.2c-.047.542-.008.843-.026.844,0,0-.01-.075-.018-.218a4.654,4.654,0,0,1,0-.629,6.262,6.262,0,0,1,.6-2.227,8.808,8.808,0,0,1,2.064-2.726,14.86,14.86,0,0,1,3.531-2.264c1.344-.645,2.667-1.158,3.845-1.675a24.064,24.064,0,0,0,3.044-1.547,12.538,12.538,0,0,0,1.844-1.374c.2-.185.352-.331.451-.435S373.717,119.982,373.717,119.982Z" transform="translate(-358.166 -119.982)" fill="#fafafa"/>
                </g>
              </g>
              <g id="Group_42126" data-name="Group 42126" transform="translate(12.447 9.242)">
                <g id="Group_42125" data-name="Group 42125">
                  <path id="Path_49547" data-name="Path 49547" d="M375.4,131.851a.65.65,0,0,1-.07.12l-.221.332c-.19.289-.488.693-.875,1.176a20.936,20.936,0,0,1-7.584,5.887c-.564.256-1.029.444-1.357.556l-.376.131a.638.638,0,0,1-.133.038.674.674,0,0,1,.126-.059l.368-.15c.322-.124.781-.323,1.34-.587a22.1,22.1,0,0,0,7.557-5.866c.394-.475.7-.871.9-1.152l.237-.32A.649.649,0,0,1,375.4,131.851Z" transform="translate(-364.78 -131.851)" fill="#fafafa"/>
                </g>
              </g>
              <g id="Group_42128" data-name="Group 42128" transform="translate(0.965 1.802)">
                <g id="Group_42127" data-name="Group 42127">
                  <path id="Path_49548" data-name="Path 49548" d="M343.093,117.8a10.108,10.108,0,0,1,1.6.85,13.285,13.285,0,0,1,5.361,6.766,10.167,10.167,0,0,1,.461,1.756.53.53,0,0,1-.04-.12c-.029-.109-.06-.223-.094-.348a12.669,12.669,0,0,0-.4-1.261,13.791,13.791,0,0,0-5.331-6.727,12.483,12.483,0,0,0-1.137-.678l-.318-.171A.577.577,0,0,1,343.093,117.8Z" transform="translate(-343.093 -117.799)" fill="#fafafa"/>
                </g>
              </g>
            </g>
            <g id="Group_42226" data-name="Group 42226" transform="translate(0 8.389)">
              <g id="Group_42222" data-name="Group 42222">
                <g id="Group_42131" data-name="Group 42131" transform="translate(0 13.323)">
                  <g id="Group_42130" data-name="Group 42130">
                    <path id="Path_49549" data-name="Path 49549" d="M285.89,155.4c.207,2.807-1.646,5.313-3.513,7.418s-3.945,4.3-4.348,7.084c-.715,4.935,4.116,9.517,3.12,14.4-.534,2.619-2.678,4.723-3.061,7.368-.37,2.558,1,5.063,2.7,7.01s3.669,1.663,5.172,3.766a21.138,21.138,0,0,0,6.522,5.8c5.415,2.965,11.914-1.325,14.527-2.1" transform="translate(-277.956 -155.403)" fill="#263238"/>
                  </g>
                </g>
                <g id="Group_42133" data-name="Group 42133" transform="translate(7.845)">
                  <g id="Group_42132" data-name="Group 42132">
                    <path id="Path_49550" data-name="Path 49550" d="M333.814,155.063c2.5-1.086,2.692-10.031-3.57-11.065a16.976,16.976,0,0,1-6.717-3.062c-1.87-1.258-2.425-4.453-4.008-6.058a15.672,15.672,0,0,0-26.358,7.19c-.91,3.625-.289,7.909,2.568,10.318,3.316,2.795,8.232,2.174,12.481,1.3s9.058-1.727,12.605.768c2.139,1.5,3.366,3.952,4.673,6.217s2.949,4.578,5.422,5.43c0,0,1.883,4.425.346,7.505s1.808-2.173,1.808-2.173,6.1-10.843.749-16.376" transform="translate(-292.773 -130.239)" fill="#263238"/>
                  </g>
                </g>
                <g id="Group_42219" data-name="Group 42219" transform="translate(5.391 12.327)">
                  <g id="Group_42218" data-name="Group 42218">
                    <g id="Group_42217" data-name="Group 42217">
                      <g id="Group_42216" data-name="Group 42216">
                        <g id="Group_42199" data-name="Group 42199">
                          <g id="Group_42198" data-name="Group 42198">
                            <g id="Group_42197" data-name="Group 42197">
                              <g id="Group_42141" data-name="Group 42141">
                                <g id="Group_42140" data-name="Group 42140">
                                  <g id="Group_42139" data-name="Group 42139">
                                    <g id="Group_42138" data-name="Group 42138">
                                      <g id="Group_42137" data-name="Group 42137">
                                        <g id="Group_42136" data-name="Group 42136">
                                          <g id="Group_42135" data-name="Group 42135">
                                            <g id="Group_42134" data-name="Group 42134">
                                              <path id="Path_49551" data-name="Path 49551" d="M299.911,228.8c-.034-5.84,0-22.24,0-22.21,0,0-9.276-1.561-11.172-13.674-.943-6.024-.618-15.9-.092-23.965.474-7.263,5.306-16.165,12.542-15.383l22.588,5.763a4.258,4.258,0,0,1,3.8,4.328h0l-1.375,56.1Z" transform="translate(-288.138 -153.521)" fill="#ffbe9d"/>
                                            </g>
                                          </g>
                                        </g>
                                      </g>
                                    </g>
                                  </g>
                                </g>
                              </g>
                              <g id="Group_42159" data-name="Group 42159" transform="translate(2.614 18.946)">
                                <g id="Group_42149" data-name="Group 42149" transform="translate(1.738 2.005)">
                                  <g id="Group_42148" data-name="Group 42148">
                                    <g id="Group_42147" data-name="Group 42147">
                                      <g id="Group_42146" data-name="Group 42146">
                                        <g id="Group_42145" data-name="Group 42145">
                                          <g id="Group_42144" data-name="Group 42144">
                                            <g id="Group_42143" data-name="Group 42143">
                                              <g id="Group_42142" data-name="Group 42142">
                                                <path id="Path_49552" data-name="Path 49552" d="M296.358,194.492a1.553,1.553,0,0,0,1.494,1.57,1.485,1.485,0,0,0,1.6-1.4,1.553,1.553,0,0,0-1.492-1.571A1.487,1.487,0,0,0,296.358,194.492Z" transform="translate(-296.357 -193.092)" fill="#263238"/>
                                              </g>
                                            </g>
                                          </g>
                                        </g>
                                      </g>
                                    </g>
                                  </g>
                                </g>
                                <g id="Group_42158" data-name="Group 42158">
                                  <g id="Group_42157" data-name="Group 42157">
                                    <g id="Group_42156" data-name="Group 42156">
                                      <g id="Group_42155" data-name="Group 42155">
                                        <g id="Group_42154" data-name="Group 42154">
                                          <g id="Group_42153" data-name="Group 42153">
                                            <g id="Group_42152" data-name="Group 42152">
                                              <g id="Group_42151" data-name="Group 42151">
                                                <g id="Group_42150" data-name="Group 42150">
                                                  <path id="Path_49553" data-name="Path 49553" d="M293.1,190.931c.192.2,1.371-.665,3.042-.657,1.669-.015,2.893.847,3.076.643.089-.091-.106-.456-.64-.847a4.262,4.262,0,0,0-2.461-.765,4.093,4.093,0,0,0-2.421.776C293.18,190.475,293.005,190.841,293.1,190.931Z" transform="translate(-293.075 -189.306)" fill="#263238"/>
                                                </g>
                                              </g>
                                            </g>
                                          </g>
                                        </g>
                                      </g>
                                    </g>
                                  </g>
                                </g>
                              </g>
                              <g id="Group_42169" data-name="Group 42169" transform="translate(19.039 21.609)">
                                <g id="Group_42168" data-name="Group 42168">
                                  <g id="Group_42167" data-name="Group 42167">
                                    <g id="Group_42166" data-name="Group 42166">
                                      <g id="Group_42165" data-name="Group 42165">
                                        <g id="Group_42164" data-name="Group 42164">
                                          <g id="Group_42163" data-name="Group 42163">
                                            <g id="Group_42162" data-name="Group 42162">
                                              <g id="Group_42161" data-name="Group 42161">
                                                <g id="Group_42160" data-name="Group 42160">
                                                  <path id="Path_49554" data-name="Path 49554" d="M324.122,195.961c.192.2,1.372-.665,3.042-.657,1.669-.016,2.894.847,3.076.642.089-.091-.1-.456-.64-.846a4.256,4.256,0,0,0-2.461-.765,4.1,4.1,0,0,0-2.422.776C324.2,195.5,324.028,195.87,324.122,195.961Z" transform="translate(-324.097 -194.335)" fill="#263238"/>
                                                </g>
                                              </g>
                                            </g>
                                          </g>
                                        </g>
                                      </g>
                                    </g>
                                  </g>
                                </g>
                              </g>
                              <g id="Group_42178" data-name="Group 42178" transform="translate(8.716 19.377)">
                                <g id="Group_42177" data-name="Group 42177">
                                  <g id="Group_42176" data-name="Group 42176">
                                    <g id="Group_42175" data-name="Group 42175">
                                      <g id="Group_42174" data-name="Group 42174">
                                        <g id="Group_42173" data-name="Group 42173">
                                          <g id="Group_42172" data-name="Group 42172">
                                            <g id="Group_42171" data-name="Group 42171">
                                              <g id="Group_42170" data-name="Group 42170">
                                                <path id="Path_49555" data-name="Path 49555" d="M308.856,204.042a11.035,11.035,0,0,0-2.713-.5c-.426-.045-.83-.131-.9-.422a2.175,2.175,0,0,1,.288-1.264q.605-1.547,1.269-3.246c1.763-4.622,3.039-8.423,2.853-8.492s-1.767,3.621-3.53,8.243q-.636,1.71-1.216,3.266a2.475,2.475,0,0,0-.225,1.674,1.073,1.073,0,0,0,.7.626,2.919,2.919,0,0,0,.725.1A10.893,10.893,0,0,0,308.856,204.042Z" transform="translate(-304.601 -190.12)" fill="#263238"/>
                                              </g>
                                            </g>
                                          </g>
                                        </g>
                                      </g>
                                    </g>
                                  </g>
                                </g>
                              </g>
                              <g id="Group_42186" data-name="Group 42186" transform="translate(11.773 48.78)">
                                <g id="Group_42185" data-name="Group 42185">
                                  <g id="Group_42184" data-name="Group 42184">
                                    <g id="Group_42183" data-name="Group 42183">
                                      <g id="Group_42182" data-name="Group 42182">
                                        <g id="Group_42181" data-name="Group 42181">
                                          <g id="Group_42180" data-name="Group 42180">
                                            <g id="Group_42179" data-name="Group 42179">
                                              <path id="Path_49556" data-name="Path 49556" d="M310.374,249.945a30.8,30.8,0,0,0,16.226-4.29c-.136.029-4.465,8.417-16.068,7.149Z" transform="translate(-310.374 -245.655)" fill="#eb996e"/>
                                            </g>
                                          </g>
                                        </g>
                                      </g>
                                    </g>
                                  </g>
                                </g>
                              </g>
                              <g id="Group_42187" data-name="Group 42187" transform="translate(13.431 35.31)">
                                <path id="Path_49557" data-name="Path 49557" d="M313.529,223.025c-.2-1.028,1.01-1.362,1.9-1.914s1.4-1.288,2.234-.653a3.25,3.25,0,0,1,1.029,1.441,2.277,2.277,0,0,1,.167,1.183,2.3,2.3,0,0,1-.744,1.237,3.524,3.524,0,0,1-1.814.949,2.526,2.526,0,0,1-1.964-.462,1.981,1.981,0,0,1-.749-1.832" transform="translate(-313.507 -220.212)" fill="#eb996e"/>
                              </g>
                              <g id="Group_42196" data-name="Group 42196" transform="translate(12.551 34.465)">
                                <g id="Group_42195" data-name="Group 42195">
                                  <g id="Group_42194" data-name="Group 42194">
                                    <g id="Group_42193" data-name="Group 42193">
                                      <g id="Group_42192" data-name="Group 42192">
                                        <g id="Group_42191" data-name="Group 42191">
                                          <g id="Group_42190" data-name="Group 42190">
                                            <g id="Group_42189" data-name="Group 42189">
                                              <g id="Group_42188" data-name="Group 42188">
                                                <path id="Path_49558" data-name="Path 49558" d="M317.179,218.618c-.272-.016-.28,1.8-1.835,3.081s-3.485,1.08-3.5,1.334c-.026.114.429.353,1.245.377a4.514,4.514,0,0,0,2.922-1.011,3.933,3.933,0,0,0,1.422-2.584C317.5,219.057,317.3,218.608,317.179,218.618Z" transform="translate(-311.843 -218.618)" fill="#263238"/>
                                              </g>
                                            </g>
                                          </g>
                                        </g>
                                      </g>
                                    </g>
                                  </g>
                                </g>
                              </g>
                            </g>
                          </g>
                        </g>
                        <g id="Group_42207" data-name="Group 42207" transform="translate(18.806 18.256)">
                          <g id="Group_42206" data-name="Group 42206">
                            <g id="Group_42205" data-name="Group 42205">
                              <g id="Group_42204" data-name="Group 42204">
                                <g id="Group_42203" data-name="Group 42203">
                                  <g id="Group_42202" data-name="Group 42202">
                                    <g id="Group_42201" data-name="Group 42201">
                                      <g id="Group_42200" data-name="Group 42200">
                                        <path id="Path_49559" data-name="Path 49559" d="M323.666,189.248c.164.454,1.833.243,3.792.483,1.965.2,3.545.779,3.806.372.116-.195-.158-.623-.8-1.064a6.642,6.642,0,0,0-5.788-.652C323.959,188.676,323.6,189.032,323.666,189.248Z" transform="translate(-323.658 -188.002)" fill="#263238"/>
                                      </g>
                                    </g>
                                  </g>
                                </g>
                              </g>
                            </g>
                          </g>
                        </g>
                        <g id="Group_42215" data-name="Group 42215" transform="translate(2.829 13.068)">
                          <g id="Group_42214" data-name="Group 42214">
                            <g id="Group_42213" data-name="Group 42213">
                              <g id="Group_42212" data-name="Group 42212">
                                <g id="Group_42211" data-name="Group 42211">
                                  <g id="Group_42210" data-name="Group 42210">
                                    <g id="Group_42209" data-name="Group 42209">
                                      <g id="Group_42208" data-name="Group 42208">
                                        <path id="Path_49560" data-name="Path 49560" d="M293.523,179.927c.293.38,1.445-.011,2.829-.027,1.384-.064,2.556.26,2.827-.136.119-.193-.065-.573-.577-.933a4.1,4.1,0,0,0-4.557.131C293.555,179.351,293.394,179.741,293.523,179.927Z" transform="translate(-293.48 -178.203)" fill="#263238"/>
                                      </g>
                                    </g>
                                  </g>
                                </g>
                              </g>
                            </g>
                          </g>
                        </g>
                      </g>
                    </g>
                  </g>
                </g>
                <g id="Group_42221" data-name="Group 42221" transform="translate(15.643 9.744)">
                  <g id="Group_42220" data-name="Group 42220">
                    <path id="Path_49561" data-name="Path 49561" d="M338.013,197.544c-3.33.671-3.627-1.023-6.115-3.336a10.936,10.936,0,0,1-3.347-9.225c.376-2.974,1.98-6,.949-8.814-1.363-3.721-6.579-4.867-7.964-8.58-.8-2.159-.083-4.683-.994-6.8-.858-1.989-2.95-3.135-4.987-3.871s-4.221-1.245-5.931-2.574-2.777-3.838-1.674-5.7a114.764,114.764,0,0,1,26.458,6.429c1.976.738,4.052,1.625,5.22,3.382,1.236,1.858,1.177,4.259,1.073,6.489l-1.522,32.616" transform="translate(-307.501 -148.644)" fill="#263238"/>
                  </g>
                </g>
              </g>
              <g id="Group_42225" data-name="Group 42225" transform="translate(15.824 5.657)">
                <g id="Group_42224" data-name="Group 42224">
                  <g id="Group_42223" data-name="Group 42223">
                    <path id="Path_49562" data-name="Path 49562" d="M345.89,189.847c.007.005.052-.046.132-.151a4.259,4.259,0,0,0,.334-.484,6.439,6.439,0,0,0,.8-2.117,7.445,7.445,0,0,0-.195-3.576,6.837,6.837,0,0,0-2.818-3.79c-1.436-1.013-3.307-1.719-4.5-3.33a3.634,3.634,0,0,1-.658-2.843,16.23,16.23,0,0,1,1.054-3.142,9.036,9.036,0,0,0-.156-7.229,7.92,7.92,0,0,0-2.457-3.052,9.6,9.6,0,0,0-3.714-1.54c-1.311-.3-2.62-.473-3.834-.839A7.479,7.479,0,0,1,326.671,156a5.334,5.334,0,0,1-1.392-3.177,27.213,27.213,0,0,0-.57-3.52,12.135,12.135,0,0,0-3.268-5.728,9.567,9.567,0,0,0-5.144-2.552,7.644,7.644,0,0,0-4.68.708,7.4,7.4,0,0,0-2.708,2.344,6.263,6.263,0,0,0-.947,2.055,3.215,3.215,0,0,0-.118.779,7.7,7.7,0,0,1,1.233-2.712,7.3,7.3,0,0,1,7.161-2.8,9.227,9.227,0,0,1,4.9,2.5,11.748,11.748,0,0,1,3.1,5.534,27.243,27.243,0,0,1,.542,3.473,5.834,5.834,0,0,0,1.523,3.467,7.961,7.961,0,0,0,3.43,1.9c1.272.384,2.584.556,3.868.851a9.1,9.1,0,0,1,3.518,1.448,7.411,7.411,0,0,1,2.3,2.846,8.552,8.552,0,0,1,.17,6.835,16.364,16.364,0,0,0-1.057,3.246,4.092,4.092,0,0,0,.763,3.174c1.321,1.737,3.247,2.413,4.641,3.381a6.552,6.552,0,0,1,2.746,3.568,7.372,7.372,0,0,1,.274,3.45A8.12,8.12,0,0,1,345.89,189.847Z" transform="translate(-307.844 -140.923)" fill="#455a64"/>
                  </g>
                </g>
              </g>
            </g>
            <g id="Group_42232" data-name="Group 42232" transform="translate(31.211 50.938)">
              <g id="Group_42229" data-name="Group 42229">
                <g id="Group_42227" data-name="Group 42227" transform="translate(0.03)">
                  <path id="Path_49563" data-name="Path 49563" d="M343.838,210.6a30.632,30.632,0,0,0-1.415,20.194c.548,1.981,1.305,4.034.837,6.036-.507,2.167-2.318,3.734-3.64,5.524a13.634,13.634,0,0,0,4.178,19.922c.35-1.991,2.2-3.349,4.03-4.214s3.845-1.508,5.239-2.973,1.787-4.15.168-5.36c4.661-1.218,7.3-6.754,6.322-11.471s-4.817-8.443-9.18-10.486" transform="translate(-336.963 -210.604)" fill="#263238"/>
                </g>
                <g id="Group_42228" data-name="Group 42228" transform="translate(0 35.864)">
                  <path id="Path_49564" data-name="Path 49564" d="M348.781,289.5c-.833.457-1.642.866-1.745,1.811-.121,1.109.943,3.055,1.325,4.1a5.7,5.7,0,0,1-7.451,7.254,2.993,2.993,0,0,0,2.89-2.831,6.26,6.26,0,0,0-1.479-4.131,41.577,41.577,0,0,1-2.72-3.565c-1.535-2.63-3.814-9.786-2.06-13.794" transform="translate(-336.906 -278.343)" fill="#263238"/>
                </g>
              </g>
              <g id="Group_42231" data-name="Group 42231" transform="translate(13.649 8.142)">
                <g id="Group_42230" data-name="Group 42230">
                  <path id="Path_49565" data-name="Path 49565" d="M365.149,257.153a1.931,1.931,0,0,1,.286-.242c.194-.149.475-.374.831-.672a18.505,18.505,0,0,0,2.722-2.815,14.144,14.144,0,0,0,2.579-5.145,11.592,11.592,0,0,0-.341-6.953,10.281,10.281,0,0,0-1.916-3.094c-.779-.9-1.628-1.677-2.424-2.436a25.01,25.01,0,0,1-2.173-2.262,9.712,9.712,0,0,1-1.424-2.342,6.187,6.187,0,0,1-.467-3.891,4.124,4.124,0,0,1,.4-1,1.937,1.937,0,0,1,.2-.314,6.939,6.939,0,0,0-.5,1.342,6.214,6.214,0,0,0,.541,3.789,9.667,9.667,0,0,0,1.422,2.275,25.412,25.412,0,0,0,2.171,2.222c.8.752,1.658,1.534,2.453,2.443a10.475,10.475,0,0,1,1.969,3.171,11.742,11.742,0,0,1,.331,7.116,14.1,14.1,0,0,1-2.672,5.2,17.189,17.189,0,0,1-2.807,2.777c-.368.287-.661.5-.866.634A1.926,1.926,0,0,1,365.149,257.153Z" transform="translate(-362.685 -225.983)" fill="#455a64"/>
                </g>
              </g>
            </g>
          </g>
        </g>
      </g>
      <g id="Plant" transform="translate(-95.257 174.125)">
        <g id="Group_42252" data-name="Group 42252" transform="translate(0 0)">
          <g id="Group_42236" data-name="Group 42236" transform="translate(16.639)">
            <g id="Group_42235" data-name="Group 42235">
              <path id="Path_49566" data-name="Path 49566" d="M78.6,387.848c1.338,1.677,3.689.946,4.729-.195a8.943,8.943,0,0,0,1.742-4.228c.76-3.443,1.518-7.051.578-10.449a5.775,5.775,0,0,0-1.5-2.736,3.015,3.015,0,0,0-2.912-.77,4.412,4.412,0,0,0-2.327,2.775,24.768,24.768,0,0,0-1.775,10.764,8.589,8.589,0,0,0,1.469,4.84" transform="translate(-77.088 -369.349)" fill="#9ac225"/>
            </g>
          </g>
          <g id="Group_42238" data-name="Group 42238" transform="translate(16.639 0.996)" opacity="0.2">
            <g id="Group_42237" data-name="Group 42237">
              <path id="Path_49567" data-name="Path 49567" d="M78.6,387.848c1.338,1.677,3.689.946,4.729-.195a8.943,8.943,0,0,0,1.742-4.228c.76-3.443,1.518-7.051.578-10.449a5.775,5.775,0,0,0-1.5-2.736,3.015,3.015,0,0,0-2.912-.77,4.412,4.412,0,0,0-2.327,2.775,24.768,24.768,0,0,0-1.775,10.764,8.589,8.589,0,0,0,1.469,4.84" transform="translate(-77.088 -369.349)" fill="#9ac225"/>
            </g>
          </g>
          <g id="Group_42240" data-name="Group 42240" transform="translate(21.162 25.802)">
            <g id="Group_42239" data-name="Group 42239">
              <path id="Path_49568" data-name="Path 49568" d="M87.78,419.374a10.662,10.662,0,0,1,6.553-1.218,5.5,5.5,0,0,1,3.354,1.251,2.352,2.352,0,0,1,.239,3.255,3.135,3.135,0,0,1-2.024.651c-1.747.089-3.7-.1-5.032,1.042-.758.65-1.225,1.679-2.158,2.034a2.254,2.254,0,0,1-2.544-.946,3.851,3.851,0,0,1-.459-2.819A4.341,4.341,0,0,1,87.78,419.374Z" transform="translate(-85.63 -418.083)" fill="#9ac225"/>
            </g>
          </g>
          <g id="Group_42242" data-name="Group 42242" transform="translate(0 6.828)">
            <g id="Group_42241" data-name="Group 42241">
              <path id="Path_49569" data-name="Path 49569" d="M60.6,396.646a6.394,6.394,0,0,0,.624-5.936,11.341,11.341,0,0,0-3.8-4.828,18.765,18.765,0,0,0-6.461-3.284,6.659,6.659,0,0,0-2.832-.3,2.946,2.946,0,0,0-2.262,1.57c-.577,1.292.147,2.769.9,3.963a47.54,47.54,0,0,0,4.484,5.974A11.1,11.1,0,0,0,56,397.378c1.914.6,3.851.391,4.76-.968" transform="translate(-45.661 -382.246)" fill="#9ac225"/>
            </g>
          </g>
          <g id="Group_42245" data-name="Group 42245" transform="translate(19.632 28.268)">
            <g id="Group_42244" data-name="Group 42244">
              <g id="Group_42243" data-name="Group 42243">
                <path id="Path_49570" data-name="Path 49570" d="M82.842,439.439a3.866,3.866,0,0,0,.061-.8c.02-.583.045-1.316.075-2.188a31.6,31.6,0,0,1,.289-3.222,24.66,24.66,0,0,1,.923-3.839,13.917,13.917,0,0,1,1.709-3.529,7.2,7.2,0,0,1,2.3-2.174,6.814,6.814,0,0,1,2.007-.767,3.837,3.837,0,0,0,.787-.165,3.744,3.744,0,0,0-.808.038,6.225,6.225,0,0,0-2.1.69,7.186,7.186,0,0,0-2.436,2.2,13.59,13.59,0,0,0-1.775,3.6,23.064,23.064,0,0,0-.911,3.9,27.092,27.092,0,0,0-.221,3.258c-.011.928.01,1.678.03,2.2A3.7,3.7,0,0,0,82.842,439.439Z" transform="translate(-82.741 -422.741)" fill="#263238"/>
              </g>
            </g>
          </g>
          <g id="Group_42248" data-name="Group 42248" transform="translate(19.123 7.069)">
            <g id="Group_42247" data-name="Group 42247">
              <g id="Group_42246" data-name="Group 42246">
                <path id="Path_49571" data-name="Path 49571" d="M82.433,418.914a1.572,1.572,0,0,0,0-.372c-.018-.277-.041-.628-.069-1.057-.06-.918-.143-2.246-.2-3.889-.125-3.286-.128-7.832.1-12.843s.682-9.539,1.144-12.794c.106-.815.219-1.55.328-2.194s.188-1.2.277-1.652c.074-.424.134-.77.183-1.044a1.582,1.582,0,0,0,.042-.369,1.535,1.535,0,0,0-.107.355l-.244,1.032c-.108.448-.213,1-.333,1.646s-.255,1.377-.376,2.192a120.245,120.245,0,0,0-1.243,12.812c-.233,5.022-.193,9.579-.008,12.87.084,1.646.2,2.974.3,3.89l.131,1.053A1.579,1.579,0,0,0,82.433,418.914Z" transform="translate(-81.779 -382.7)" fill="#263238"/>
              </g>
            </g>
          </g>
          <g id="Group_42251" data-name="Group 42251" transform="translate(5.987 10.739)">
            <g id="Group_42250" data-name="Group 42250">
              <g id="Group_42249" data-name="Group 42249">
                <path id="Path_49572" data-name="Path 49572" d="M70.23,413.416a7.036,7.036,0,0,0-.077-1.1c-.085-.708-.247-1.728-.526-2.972a39.56,39.56,0,0,0-1.248-4.3,38.719,38.719,0,0,0-2.148-5.046,27.538,27.538,0,0,0-5.881-8,13.663,13.663,0,0,0-1.333-1.092c-.2-.151-.385-.3-.567-.421l-.51-.307a7.085,7.085,0,0,0-.967-.537,33.133,33.133,0,0,1,3.22,2.528,29.037,29.037,0,0,1,5.745,7.981,41.387,41.387,0,0,1,2.156,5,44.431,44.431,0,0,1,1.307,4.253c.307,1.23.5,2.237.627,2.936A7.169,7.169,0,0,0,70.23,413.416Z" transform="translate(-56.97 -389.632)" fill="#263238"/>
              </g>
            </g>
          </g>
        </g>
      </g>
      <g id="Confetti" transform="translate(-104.845 12.747)">
        <g id="Group_42254" data-name="Group 42254" transform="translate(104.143 71.633)">
          <g id="Group_42253" data-name="Group 42253">
            <path id="Path_49573" data-name="Path 49573" d="M229.723,202.975c-.976-3.459-5.472-3.124-5.472-3.124l.123,2.406c2.6-.448,4.214,2.6,4.214,2.6Z" transform="translate(-224.251 -199.842)" fill="#36756d"/>
          </g>
        </g>
        <g id="Group_42256" data-name="Group 42256" transform="translate(62.662 34.52)">
          <g id="Group_42255" data-name="Group 42255">
            <path id="Path_49574" data-name="Path 49574" d="M148.621,129.745c-2.427.257-2.717,3.3-2.717,3.3l1.624.193c0-1.791,2.221-2.523,2.221-2.523Z" transform="translate(-145.904 -129.745)" fill="#36756d"/>
          </g>
        </g>
        <g id="Group_42258" data-name="Group 42258" transform="translate(87.978 0)">
          <g id="Group_42257" data-name="Group 42257">
            <path id="Path_49575" data-name="Path 49575" d="M193.72,66.781c1.48,3.772,6.487,2.9,6.487,2.9l-.406-2.685c-2.866.793-5.017-2.445-5.017-2.445Z" transform="translate(-193.72 -64.546)" fill="#36756d"/>
          </g>
        </g>
        <g id="Group_42260" data-name="Group 42260" transform="translate(28.803 65.962)">
          <g id="Group_42259" data-name="Group 42259">
            <path id="Path_49576" data-name="Path 49576" d="M84.67,189.131c-2.427.258-2.717,3.3-2.717,3.3l1.624.193c0-1.791,2.221-2.523,2.221-2.523Z" transform="translate(-81.953 -189.131)" fill="#36756d"/>
          </g>
        </g>
        <g id="Group_42262" data-name="Group 42262" transform="translate(38.403 10.837)">
          <g id="Group_42261" data-name="Group 42261">
            <path id="Path_49577" data-name="Path 49577" d="M103.2,88.467c.353-2.415-2.527-3.452-2.527-3.452l-.59,1.525c1.735.442,1.893,2.777,1.893,2.777Z" transform="translate(-100.085 -85.015)" fill="#36756d"/>
          </g>
        </g>
        <g id="Group_42264" data-name="Group 42264" transform="translate(0 49.765)">
          <g id="Group_42263" data-name="Group 42263">
            <path id="Path_49578" data-name="Path 49578" d="M27.578,160.131c-.436,3.787,4.58,4.7,4.58,4.7l.905-2.478c-3.01-.272-3.444-3.817-3.444-3.817Z" transform="translate(-27.551 -158.54)" fill="#36756d"/>
          </g>
        </g>
        <g id="Group_42266" data-name="Group 42266" transform="translate(118.292 29.809)">
          <g id="Group_42265" data-name="Group 42265">
            <path id="Path_49579" data-name="Path 49579" d="M251.93,124.122c2.437.139,3.216-2.821,3.216-2.821l-1.571-.454c-.287,1.768-2.6,2.13-2.6,2.13Z" transform="translate(-250.975 -120.847)" fill="#36756d"/>
          </g>
        </g>
      </g>
    </g>
  </g>
</svg>
