<svg xmlns="http://www.w3.org/2000/svg" width="15.331" height="11.837" viewBox="0 0 15.331 11.837">
  <g id="credit-dard-payment-card-cash-svgrepo-com" transform="translate(-4.57 -13.5)" opacity="0.91">
    <path id="Path_206" data-name="Path 206" d="M19.342,25.337H17.9a.646.646,0,0,1,0-1.28h.886V14.78H5.688v9.277h8.917a.646.646,0,0,1,0,1.28H5.129a.6.6,0,0,1-.559-.64V14.14a.6.6,0,0,1,.559-.64H19.342a.6.6,0,0,1,.559.64V24.7A.6.6,0,0,1,19.342,25.337Z" fill="#515151"/>
    <path id="Path_207" data-name="Path 207" d="M19.342,17.934H5.129a.6.6,0,0,1-.559-.64V14.14a.6.6,0,0,1,.559-.64H19.342a.6.6,0,0,1,.559.64v3.154A.6.6,0,0,1,19.342,17.934ZM5.688,16.654H18.783V14.78H5.688Z" fill="#515151"/>
    <path id="Path_208" data-name="Path 208" d="M13.15,36.14H11.879a.646.646,0,0,1,0-1.28H13.15a.646.646,0,0,1,0,1.28Z" transform="translate(-4.864 -14.527)" fill="#515151"/>
    <path id="Path_209" data-name="Path 209" d="M24.846,36.14H22.5a.646.646,0,0,1,0-1.28h2.347a.646.646,0,0,1,0,1.28Z" transform="translate(-12.516 -14.527)" fill="#515151"/>
  </g>
</svg>
