<svg xmlns="http://www.w3.org/2000/svg" width="9.992" height="10.011" viewBox="0 0 9.992 10.011">
  <path id="Icon_feather-phone" data-name="Icon feather-phone" d="M12.659,10.12v1.432a.954.954,0,0,1-1.04.954A9.444,9.444,0,0,1,7.5,11.041,9.306,9.306,0,0,1,4.637,8.178,9.444,9.444,0,0,1,3.172,4.04.954.954,0,0,1,4.121,3H5.553a.954.954,0,0,1,.954.821,6.127,6.127,0,0,0,.334,1.341.954.954,0,0,1-.215,1.007l-.606.606A7.635,7.635,0,0,0,8.884,9.638l.606-.606A.954.954,0,0,1,10.5,8.817a6.127,6.127,0,0,0,1.341.334.954.954,0,0,1,.821.969Z" transform="translate(-2.917 -2.75)" fill="none" stroke="#9ac225" stroke-linecap="round" stroke-linejoin="round" stroke-width="0.5"/>
</svg>
