<svg xmlns="http://www.w3.org/2000/svg" width="17.513" height="22.036" viewBox="0 0 17.513 22.036">
    <path id="user-Regular_1_" d="M696.007,1240.115a5.932,5.932,0,1,0-5.932-5.932A5.939,5.939,0,0,0,696.007,1240.115Zm0-10.17a4.237,4.237,0,1,1-4.237,4.237A4.242,4.242,0,0,1,696.007,1229.945Zm8.758,16.065v1.142a4.259,4.259,0,0,1-1.086,2.85.847.847,0,1,1-1.262-1.13,2.574,2.574,0,0,0,.654-1.719v-1.142a3.683,3.683,0,0,0-2.761-3.6,1.153,1.153,0,0,0-.843.108,7.128,7.128,0,0,1-6.911,0,1.14,1.14,0,0,0-.849-.113,3.686,3.686,0,0,0-2.762,3.6v1.142a2.569,2.569,0,0,0,.654,1.719.847.847,0,0,1-1.262,1.131,4.264,4.264,0,0,1-1.086-2.85v-1.142a5.378,5.378,0,0,1,4.042-5.243,2.852,2.852,0,0,1,2.095.28,5.422,5.422,0,0,0,5.248,0,2.858,2.858,0,0,1,2.089-.276A5.372,5.372,0,0,1,704.765,1246.01Z" transform="translate(-687.252 -1228.25)" fill="#7d7d85"/>
</svg>