<svg xmlns="http://www.w3.org/2000/svg" width="220.324" height="237.776" viewBox="0 0 220.324 237.776">
  <g id="Group_42287" data-name="Group 42287" transform="translate(-103.838 -157.019)">
    <g id="Group_41379" data-name="Group 41379" transform="translate(103.838 157.02)">
      <path id="Path_48911" data-name="Path 48911" d="M501.181,296.606a10.967,10.967,0,0,0-14.526-9.263l.8.081a14.531,14.531,0,0,0-8.881,5.673,12.582,12.582,0,0,0-1.994,10.261,11.106,11.106,0,0,0,6.966,7.662,20.45,20.45,0,0,0,5.925.791,12.8,12.8,0,0,0,3.87-.264,8.129,8.129,0,0,0,4.048-2.822,16.607,16.607,0,0,0,2.394-4.384A16.8,16.8,0,0,0,501.181,296.606Z" transform="translate(-405.844 -220.317)" fill="#2f2e41"/>
      <path id="Path_48912" data-name="Path 48912" d="M638.342,542.036c-2.827-10.632,3.451-20.995,10.786-28.169,3.909-3.823,8.263-7.147,12.509-10.58a133.614,133.614,0,0,0,11.619-10.464,84.875,84.875,0,0,0,17.34-24.829,56.772,56.772,0,0,0,4.815-28.146c-.863-9.158-4.146-18.166-10.184-25.193q-1.129-1.313-2.375-2.518c-.445-.433-1.128.249-.682.682,6.743,6.547,10.668,15.42,12,24.651a54.871,54.871,0,0,1-3.6,28.124c-3.792,9.481-9.822,17.941-16.815,25.323a124.04,124.04,0,0,1-11.218,10.4c-4.218,3.475-8.6,6.758-12.617,10.471-7.4,6.843-14.055,16.257-13.142,26.853a21.326,21.326,0,0,0,.638,3.649.483.483,0,0,0,.93-.256Z" transform="translate(-514.735 -305.325)" fill="#f0f0f0"/>
      <path id="Path_48913" data-name="Path 48913" d="M703.382,414.657a98.571,98.571,0,0,1-10.129-24.385,100.536,100.536,0,0,1-3.384-26.191,86.7,86.7,0,0,1,3.847-26.334c2.6-8,7.262-15.632,14.661-20a23.949,23.949,0,0,1,12.456-3.289,32.1,32.1,0,0,1,13.34,3.229,52.544,52.544,0,0,1,11.249,7.425,82.7,82.7,0,0,1,9.165,9,62.2,62.2,0,0,1,12.688,22,46.291,46.291,0,0,1,.656,26.376c-2.366,8.255-7.549,15.291-13.913,20.943-6.877,6.108-15.023,10.547-23.237,14.576-2.056,1.008-4.123,1.994-6.19,2.979-.56.267-.071,1.1.487.833,8.661-4.128,17.409-8.292,25.13-14.055,6.813-5.085,12.885-11.469,16.5-19.245a44.411,44.411,0,0,0,3.02-26.445A57.788,57.788,0,0,0,759.1,338.217a78.055,78.055,0,0,0-8.578-9.79,70.942,70.942,0,0,0-10.462-8.527c-7.687-5.025-17.3-8.059-26.411-5.471-8.1,2.3-14.333,8.79-18.042,16.145a55.545,55.545,0,0,0-4.471,13.035,95,95,0,0,0-1.954,13.438,101.174,101.174,0,0,0,10.238,52.305q1.467,2.948,3.131,5.791a.482.482,0,0,0,.833-.487Z" transform="translate(-550.172 -238.473)" fill="#f0f0f0"/>
      <path id="Path_48914" data-name="Path 48914" d="M684.382,385.657a98.571,98.571,0,0,1-10.129-24.385,100.534,100.534,0,0,1-3.384-26.191,86.7,86.7,0,0,1,3.847-26.334c2.6-8,7.262-15.632,14.661-20a23.949,23.949,0,0,1,12.456-3.289,32.1,32.1,0,0,1,13.34,3.229,52.549,52.549,0,0,1,11.249,7.425,82.7,82.7,0,0,1,9.165,9,62.2,62.2,0,0,1,12.688,22,46.291,46.291,0,0,1,.656,26.376c-2.366,8.255-7.549,15.291-13.913,20.943-6.877,6.108-15.023,10.547-23.237,14.576-2.056,1.008-4.123,1.994-6.19,2.979-.56.267-.071,1.1.487.833,8.661-4.128,17.409-8.292,25.13-14.055,6.813-5.085,12.885-11.469,16.5-19.245a44.411,44.411,0,0,0,3.02-26.445A57.787,57.787,0,0,0,740.1,309.217a78.049,78.049,0,0,0-8.578-9.79,70.937,70.937,0,0,0-10.462-8.527c-7.687-5.025-17.3-8.059-26.411-5.471-8.1,2.3-14.333,8.79-18.042,16.145a55.541,55.541,0,0,0-4.471,13.035,95,95,0,0,0-1.954,13.438,101.173,101.173,0,0,0,10.238,52.305q1.466,2.948,3.131,5.791a.482.482,0,0,0,.833-.487Z" transform="translate(-537.278 -218.794)" fill="#f0f0f0"/>
      <path id="Path_48915" data-name="Path 48915" d="M440.272,456.775a4.022,4.022,0,0,1,1.567-5.965l11.145-34.9,7.762,4.032-13.4,33.034a4.044,4.044,0,0,1-7.078,3.8Z" transform="translate(-380.943 -307.981)" fill="#ffb6b6"/>
      <path id="Path_48916" data-name="Path 48916" d="M469.83,402.826a1.8,1.8,0,0,1,.008-1.5l3.817-8.207a5.008,5.008,0,1,1,9.612,2.817l-1.276,8.99a1.8,1.8,0,0,1-2.3,1.476l-8.733-2.587a1.8,1.8,0,0,1-1.132-.988Z" transform="translate(-401.396 -290.068)" fill="#e6e6e6"/>
      <path id="Path_48917" data-name="Path 48917" d="M518.106,435.238c-2.652,6.945-1.975,14.23,1.292,21.779H496.258c.93-5.371.553-10.362-2.893-14.463Z" transform="translate(-417.475 -321.095)" fill="#ffb6b6"/>
      <path id="Path_48918" data-name="Path 48918" d="M480.6,378.437l6.849-4.981,11.207-3.113L508,372.211l.549,5.161a62.3,62.3,0,0,1-.86,18.809h0l-24.281,5.6-2.49-4.358s-5.6-5.6-1.245-11.829Z" transform="translate(-407.055 -277.057)" fill="#e6e6e6"/>
      <path id="Path_48919" data-name="Path 48919" d="M603.664,280.756a4.022,4.022,0,0,1-3.537,5.053l-22.545,28.874-5.884-6.472,24.011-26.347a4.044,4.044,0,0,1,7.955-1.108Z" transform="translate(-470.632 -214.215)" fill="#ffb6b6"/>
      <path id="Path_48920" data-name="Path 48920" d="M571.991,367.436a1.8,1.8,0,0,1-.528,1.406l-6.424,6.376A5.008,5.008,0,0,1,557,369.244l4.312-7.992a1.8,1.8,0,0,1,2.667-.588l7.3,5.453A1.8,1.8,0,0,1,571.991,367.436Z" transform="translate(-459.986 -270.245)" fill="#e6e6e6"/>
      <path id="Path_48921" data-name="Path 48921" d="M228.93,687.958h3.546l1.687-13.678h-5.234Z" transform="translate(-155.351 -457.567)" fill="#ffb6b6"/>
      <path id="Path_48922" data-name="Path 48922" d="M480.944,790.781l5.606-.335v2.4l5.329,3.681a1.5,1.5,0,0,1-.852,2.735h-6.674l-1.15-2.376-.449,2.376h-2.516Z" transform="translate(-408.567 -562.139)" fill="#2f2e41"/>
      <path id="Path_48923" data-name="Path 48923" d="M306.93,687.958h3.546l1.687-13.678h-5.234Z" transform="translate(-208.282 -457.567)" fill="#ffb6b6"/>
      <path id="Path_48924" data-name="Path 48924" d="M558.944,790.781l5.606-.335v2.4l5.33,3.681a1.5,1.5,0,0,1-.852,2.735h-6.674l-1.15-2.376-.449,2.376h-2.516Z" transform="translate(-461.497 -562.139)" fill="#2f2e41"/>
      <path id="Path_48925" data-name="Path 48925" d="M514.57,513.757v6.974l-.681,8.52s-.215,7.44-.476,13.309a64.675,64.675,0,0,1-.489,6.939,10.065,10.065,0,0,0-.035,3.114c.129,1.565.341,3.217.376,3.77.068,1.032-.479,5.464-.479,5.464s-.611,11.114-1.5,12,0,3.41,0,3.41c-4.159,3.066-9.411-.681-9.411-.681,1.16-1.848-.681-14.463-.681-14.463s-.27-4.307-.816-5.464-.685-8.385-.685-8.385V537.56a14.7,14.7,0,0,1-1.636-3.214,34.449,34.449,0,0,1,0-4.635l-1.5-5.046-1.025,3.953s-2.655,11.047-3.134,12.409a3.724,3.724,0,0,0,.27,2.729s.685,2.1,0,3.066a6.9,6.9,0,0,0-.964,1.98,27.807,27.807,0,0,1-.964,5.464c-.614,1.44-1.157,3.214-1.157,3.214s.145,2.719-.469,3.333-.816,3.683-.816,3.683.135,3.474-.685,4.7-.82,8.183-.82,8.183a9.539,9.539,0,0,1-9.6.408s.81-.759.2-4.294.44-13.161.44-13.161a8.012,8.012,0,0,1,.546-3.535c.681-1.093-.344-3.2-.071-4.159S479.4,546.5,479.4,546.5s-.341-12.75-.341-13.431a8.9,8.9,0,0,0-.964-3.478c-.614-1.09,0-9,0-9s1.446-4.088.964-4.975.321-2.455.321-2.455-.749-1.842,0-2.182.887-1.7.887-1.7l.521-6.614s.2-3,.82-3.137.35-1.292.964-2.112a5.763,5.763,0,0,0,.611-1.774c.087-.379.167-.775.235-1.154.193-1.028.312-1.916.312-1.916,4.024,3.343,25.181,1,25.2,1,1.343.292,2.941,4.956,4.095,9.022A41.009,41.009,0,0,1,514.57,513.757Z" transform="translate(-406.502 -360)" fill="#2f2e41"/>
      <circle id="Ellipse_1154" data-name="Ellipse 1154" cx="9.601" cy="9.601" r="9.601" transform="translate(71.515 88.111) rotate(-73.091)" fill="#ffb6b6"/>
      <path id="Path_48926" data-name="Path 48926" d="M482.8,312.88h0l3.718-.774.685-4.934,1.284,4.524,1.777-.37.4-2.878.749,2.639,13.2-2.747h0a10.163,10.163,0,0,0-12.021-7.88l-1.913.4a10.163,10.163,0,0,0-7.88,12.021Z" transform="translate(-410.162 -229.489)" fill="#2f2e41"/>
      <path id="Path_48927" data-name="Path 48927" d="M539.274,91.293l-.024.047a20.79,20.79,0,0,0-19.194,36.828l-.024.047,36.922,19.243L576.2,110.536a20.818,20.818,0,1,0-36.922-19.243Z" transform="translate(-428.6 -80.093)" fill="#9ac225"/>
      <path id="Path_48928" data-name="Path 48928" d="M688.191,768.17l-.006.012a5.255,5.255,0,0,0-4.851,9.308l-.006.012,9.332,4.864,4.864-9.332a5.262,5.262,0,0,0-9.332-4.864Z" transform="translate(-544.622 -545.101)" fill="#8aa146"/>
      <path id="Path_48929" data-name="Path 48929" d="M277.02,362.038v.053a20.79,20.79,0,0,0,0,41.53v.053h41.635V362.038a20.818,20.818,0,1,0-41.635,0Z" transform="translate(-257.242 -257.294)" fill="#9ac225"/>
      <path id="Path_48930" data-name="Path 48930" d="M482.438,818.291H274.4a.383.383,0,1,1,0-.765h208.04a.383.383,0,1,1,0,.765Z" transform="translate(-268.624 -580.515)" fill="#cacaca"/>
      <path id="Path_48931" data-name="Path 48931" d="M818.458,480.015a18.374,18.374,0,0,0,11.634-4.247,17.829,17.829,0,0,0,6.16-11.02,18.2,18.2,0,0,0-.356-7.3.482.482,0,0,0-.93.256,17.341,17.341,0,0,1-1.309,12.063,17.148,17.148,0,0,1-15.2,9.282.482.482,0,0,0,0,.964Z" transform="translate(-637.767 -335.938)" fill="#f0f0f0"/>
      <path id="Path_48932" data-name="Path 48932" d="M555.421,134.362c-2.743-2.6-7.075-2.6-10.243-.784-3.555,2.034-5.167,6.238-5.086,10.185.092,4.442,2.264,8.465,5.068,11.8a47,47,0,0,0,10.325,8.925,51.878,51.878,0,0,0,12.379,5.9q.807.26,1.622.493a.483.483,0,0,0,.256-.93A50.619,50.619,0,0,1,547.6,156.808c-2.916-2.987-5.508-6.576-6.3-10.754-.7-3.69.074-7.974,2.934-10.6,2.78-2.555,7.645-3.13,10.512-.409.45.427,1.133-.254.682-.682Z" transform="translate(-449.182 -115.521)" fill="#fff"/>
      <path id="Path_48933" data-name="Path 48933" d="M296.714,437.437c-3.706-.461-7.186,2.146-8.629,5.438-1.619,3.692-.527,7.947,1.82,11.068,2.586,3.436,6.5,5.439,10.6,6.5a45.906,45.906,0,0,0,13.583,1.239,51.96,51.96,0,0,0,15.645-3.18c.577-.214.327-1.146-.256-.93a50.287,50.287,0,0,1-26.447,2.444c-3.928-.732-7.928-2.129-10.856-4.955-2.652-2.561-4.529-6.439-3.73-10.184.793-3.722,4.331-6.967,8.274-6.477C297.329,438.478,297.323,437.513,296.714,437.437Z" transform="translate(-277.65 -322.551)" fill="#fff"/>
      <path id="Path_48934" data-name="Path 48934" d="M405.3,256.013c.9-3.583-.84-7.426-3.528-9.959s-6.2-3.988-9.667-5.249c-2.768-1.005-6.011-1.879-8.517-.331-2.013,1.244-2.887,3.66-4.038,5.728a18.773,18.773,0,0,1-23.072,8.419c1.486,4.314,6.6,6.424,11.157,6.131s8.758-2.39,13-4.071,8.959-2.98,13.318-1.634c1.84.568,3.513,1.583,5.335,2.207a6.543,6.543,0,0,0,5.577-.225" transform="translate(-324.582 -188.356)" fill="#2f2e41"/>
      <path id="Path_48935" data-name="Path 48935" d="M698.356,686.878l-3.1-5.463a.482.482,0,0,0-.833.487l3.1,5.463a.482.482,0,0,0,.833-.487Z" transform="translate(-553.872 -487.998)" fill="#f0f0f0"/>
      <path id="Path_48936" data-name="Path 48936" d="M500.642,487.583l-.228-.283A1.789,1.789,0,0,1,500.642,487.583Z" transform="translate(-422.258 -356.424)"/>
    </g>
  </g>
</svg>
