<svg xmlns="http://www.w3.org/2000/svg" width="22.323" height="19.426" viewBox="0 0 22.323 19.426">
  <g id="svgexport-10" transform="translate(-0.9 -3.899)">
    <path id="Path_48816" data-name="Path 48816" d="M20.218,17.416H20.1l-1.309-3.053a1.813,1.813,0,0,0,.7.152.363.363,0,0,0,.363-.363v-2.9a.363.363,0,0,0-.363-.363,1.813,1.813,0,0,0-1.708,1.233,1.338,1.338,0,0,0-.914-.548,1.813,1.813,0,0,0-.689.044h-.315c-.613,0-.885-.363-1.313-.954l-.214-.3a1.251,1.251,0,0,0,.616-.2,1.313,1.313,0,0,0,.526-.859,1.019,1.019,0,0,0,.479-.631.649.649,0,0,0-.2-.569,1.73,1.73,0,0,1-.236-.834.363.363,0,0,0,.341-.37A2.9,2.9,0,1,0,10.9,8.938a2.952,2.952,0,0,0,.254.225A3.877,3.877,0,0,0,8.64,11.955a1.153,1.153,0,0,0-.819-.341H3.97A1.153,1.153,0,0,0,3,12.143a.363.363,0,1,0,.609.4.428.428,0,0,1,.363-.2h.656v1.088a.363.363,0,0,0,.363.363H6.8a.363.363,0,0,0,.363-.363V12.339H7.82a.431.431,0,0,1,.431.431v2.767a.431.431,0,0,1-.431.428H3.97a.424.424,0,0,1-.431-.363h.725a.363.363,0,0,0,0-.725H3.538v-.725H3.9a.363.363,0,1,0,0-.725H2.088a.363.363,0,1,0,0,.725h.725v.725H1.363a.363.363,0,0,0,0,.725h1.45A1.153,1.153,0,0,0,3.962,16.69H5.775a2.419,2.419,0,0,0-.424.558,6.646,6.646,0,0,0-.725,3.068.363.363,0,0,0,.363.363H6.1a2.9,2.9,0,0,0,5.751,0h5.49a2.9,2.9,0,1,0,2.875-3.263ZM6.439,13.064H5.351v-.725H6.439ZM19.13,11.676v2.052a1.088,1.088,0,0,1,0-2.052Zm-2.364.613a.7.7,0,0,1,.58.555l.094.221a3.3,3.3,0,0,1-1.635.363.957.957,0,0,1,.537-1.088,1.059,1.059,0,0,1,.424-.047ZM14.978,8.75a.363.363,0,0,0-.2.326.656.656,0,0,1-.228.479,1.29,1.29,0,0,1-1.088-.091.363.363,0,0,0-.08,0l-.054-.047V8.028a.765.765,0,0,1,.765-.765h.685A2.426,2.426,0,0,0,15.2,8.575a.957.957,0,0,1-.225.178ZM10.79,6.868a2.215,2.215,0,0,1,2.143-2.143h.033a2.176,2.176,0,0,1,2.147,1.813H14.093a1.494,1.494,0,0,0-1.49,1.49V9.047A2.176,2.176,0,0,1,10.79,6.871ZM11.878,9.8a2.284,2.284,0,0,1,2.081,1.273,2.637,2.637,0,0,0,1.378,1.186,1.813,1.813,0,0,0-.265,1.11,3.3,3.3,0,0,1-2.157-1.581.363.363,0,1,0-.62.363,4.413,4.413,0,0,0,.45.624l-.033.022a3.158,3.158,0,0,0-.693,1.356H8.977V13.79C9,13.568,9.416,9.8,11.878,9.8Zm-2.9,5.733v-.656H12.24a1.76,1.76,0,0,1,1.813,1.813V18.5H12.6v-.725a1.748,1.748,0,0,0-1.813-1.813h-1.9a1.146,1.146,0,0,0,.083-.431Zm0,6.958a2.176,2.176,0,0,1-2.143-1.813h.743a1.45,1.45,0,0,0,2.8,0h.743a2.176,2.176,0,0,1-2.143,1.813Zm-.624-1.813H9.6a.725.725,0,0,1-1.247,0Zm-3-.725a5.834,5.834,0,0,1,.66-2.39A1.661,1.661,0,0,1,7.5,16.69H10.79a1.033,1.033,0,0,1,1.088,1.088v1.088a1.813,1.813,0,0,0,.363,1.088Zm8.34,0a1.088,1.088,0,0,1-1.023-.725h1.748a.682.682,0,0,1,.725.7,2.9,2.9,0,0,1-.363.025Zm2.324-.424a.936.936,0,0,1-.178.156,1.356,1.356,0,0,0-1.059-1.131V16.69a2.379,2.379,0,0,0-2.023-2.484,2.451,2.451,0,0,1,.468-.888.341.341,0,0,0,.025-.04,3.963,3.963,0,0,0,1.958.848l1.023,4.445A1.291,1.291,0,0,1,16.015,19.53Zm.939-1.106-1-4.271a3.9,3.9,0,0,0,1.769-.406l1.711,3.989-1.581,2.219H16.592a2.031,2.031,0,0,0,.363-1.53Zm3.263,1.53h-.624a.725.725,0,1,1,0,.725h.624a.363.363,0,1,0,0-.725Zm-1.472,0,.127-.178a1.451,1.451,0,0,0-.054.178Zm1.472,2.538a2.176,2.176,0,0,1-2.143-1.813h.743a1.45,1.45,0,1,0,.442-1.45l.772-1.088h.185a2.176,2.176,0,1,1,0,4.351Z" fill="#7d7d85" stroke="#7d7d85" stroke-width="0.2"/>
  </g>
</svg>