<svg xmlns="http://www.w3.org/2000/svg" width="19.494" height="15.652" viewBox="0 0 19.494 15.652">
  <g id="Wallet" transform="translate(0.15 -6.85)">
    <path id="Path_328" data-name="Path 328" d="M17.332,7H1.862A1.889,1.889,0,0,0,0,8.91V20.445a1.888,1.888,0,0,0,1.863,1.907H16.132a1.867,1.867,0,0,0,1.745-1.245c.837-.087,1.318-.76,1.318-1.892V8.91A1.889,1.889,0,0,0,17.332,7Zm-1.2,14.738H1.863A1.28,1.28,0,0,1,.6,20.445V10.135A1.28,1.28,0,0,1,1.863,8.842H16.132a1.28,1.28,0,0,1,1.263,1.293V12.22H13.78A2.759,2.759,0,0,0,11.1,15.042v.5A2.758,2.758,0,0,0,13.78,18.36h3.614v2.084A1.28,1.28,0,0,1,16.132,21.738Zm1.263-3.991H13.78A2.151,2.151,0,0,1,11.7,15.539v-.5a2.151,2.151,0,0,1,2.084-2.208h3.614Zm1.2,1.468c0,.9-.327,1.175-.6,1.258,0-.009,0-.018,0-.028V10.135a1.888,1.888,0,0,0-1.863-1.907H1.863A1.829,1.829,0,0,0,.618,8.72,1.272,1.272,0,0,1,1.862,7.614H17.332a1.281,1.281,0,0,1,1.263,1.3Z" transform="translate(0 0)" fill="#515151" stroke="#515151" stroke-width="0.3"/>
    <path id="Path_329" data-name="Path 329" d="M42,31.187A1.187,1.187,0,1,0,43.187,30,1.188,1.188,0,0,0,42,31.187Zm1.187-.593a.593.593,0,1,1-.593.593A.594.594,0,0,1,43.187,30.593Z" transform="translate(-29.384 -15.893)" fill="#515151" stroke="#515151" stroke-width="0.3"/>
  </g>
</svg>
